<?xml version="1.0" encoding="UTF-8" standalone="no"?>
<!-- Created with Inkscape (http://www.inkscape.org/) -->

<svg
   version="1.1"
   id="svg123130"
   xml:space="preserve"
   width="800"
   height="800"
   viewBox="0 0 800 800"
   sodipodi:docname="shark-sea-pdv.svg"
   inkscape:version="1.1.2 (b8e25be833, 2022-02-05)"
   xmlns:inkscape="http://www.inkscape.org/namespaces/inkscape"
   xmlns:sodipodi="http://sodipodi.sourceforge.net/DTD/sodipodi-0.dtd"
   xmlns="http://www.w3.org/2000/svg"
   xmlns:svg="http://www.w3.org/2000/svg"><defs
     id="defs123134"><clipPath
       clipPathUnits="userSpaceOnUse"
       id="clipPath123144"><path
         d="M 0,600 H 600 V 0 H 0 Z"
         id="path123142" /></clipPath></defs><sodipodi:namedview
     id="namedview123132"
     pagecolor="#ffffff"
     bordercolor="#666666"
     borderopacity="1.0"
     inkscape:pageshadow="2"
     inkscape:pageopacity="0.0"
     inkscape:pagecheckerboard="0"
     showgrid="false"
     inkscape:zoom="1.03875"
     inkscape:cx="400"
     inkscape:cy="400"
     inkscape:window-width="1920"
     inkscape:window-height="1018"
     inkscape:window-x="-8"
     inkscape:window-y="-8"
     inkscape:window-maximized="1"
     inkscape:current-layer="g123136" /><g
     id="g123136"
     inkscape:groupmode="layer"
     inkscape:label="shark-sea-pdv"
     transform="matrix(1.3333333,0,0,-1.3333333,0,800)"><g
       id="g123138"><g
         id="g123140"
         clip-path="url(#clipPath123144)"><path
           d="m 525.229,269.663 c -2.078,-2.676 -2.294,-2.676 -2.541,-2.676 -0.132,0 -0.35,0.42 -3.09,1.985 l -2.036,-1.897 h 0.131 c 2.415,0 4.835,-0.353 7.21,-0.238 0.203,1.04 0.388,1.871 0.554,2.915 -0.077,0.043 -0.147,-0.132 -0.228,-0.089"
           style="fill:#29abe2;fill-opacity:1;fill-rule:nonzero;stroke:none"
           id="path123146" /><path
           d="m 410.275,275.237 c 0.009,0.028 0.018,0.056 0.028,0.083 -2.152,-0.395 -4.324,-0.795 -6.51,-1.196 -0.014,-0.028 -0.029,-0.056 -0.044,-0.083 2.19,0.4 4.368,0.8 6.526,1.196"
           style="fill:#29abe2;fill-opacity:1;fill-rule:nonzero;stroke:none"
           id="path123148" /><path
           d="m 420.551,277.123 c 0.009,0.03 0.02,0.058 0.031,0.088 -2.05,-0.377 -4.112,-0.756 -6.19,-1.137 -0.014,-0.031 -0.028,-0.06 -0.041,-0.089 2.081,0.381 4.147,0.761 6.2,1.138"
           style="fill:#29abe2;fill-opacity:1;fill-rule:nonzero;stroke:none"
           id="path123150" /><path
           d="m 496,334.839 c 0,-1.063 -0.862,-1.927 -1.927,-1.927 -1.065,0 -1.927,0.864 -1.927,1.927 0,1.067 0.862,1.929 1.927,1.929 1.065,0 1.927,-0.862 1.927,-1.929 m -29.87,2.265 c -1.066,0 -1.928,0.863 -1.928,1.927 0,1.066 0.862,1.928 1.928,1.928 1.064,0 1.927,-0.862 1.927,-1.928 0,-1.064 -0.863,-1.927 -1.927,-1.927 m -74.771,1.574 c -2.307,0 -4.177,1.87 -4.177,4.178 0,2.306 1.87,4.177 4.177,4.177 2.307,0 4.175,-1.871 4.175,-4.177 0,-2.308 -1.868,-4.178 -4.175,-4.178 m -82.29,11.968 c -1.333,0 -2.412,1.079 -2.412,2.411 0,1.331 1.079,2.412 2.412,2.412 1.331,0 2.411,-1.081 2.411,-2.412 0,-1.332 -1.08,-2.411 -2.411,-2.411 m -23.752,-40.518 c -1.333,0 -2.414,1.079 -2.414,2.41 0,1.331 1.081,2.412 2.414,2.412 1.332,0 2.411,-1.081 2.411,-2.412 0,-1.331 -1.079,-2.41 -2.411,-2.41 m -32.135,-2.794 c -1.333,0 -2.414,1.078 -2.414,2.409 0,1.332 1.081,2.413 2.414,2.413 1.332,0 2.411,-1.081 2.411,-2.413 0,-1.331 -1.079,-2.409 -2.411,-2.409 m -34.93,15.366 c -1.333,0 -2.413,1.081 -2.413,2.413 0,1.332 1.08,2.412 2.413,2.412 1.332,0 2.411,-1.08 2.411,-2.412 0,-1.332 -1.079,-2.413 -2.411,-2.413 m -2.794,-22.352 c -1.333,0 -2.414,1.078 -2.414,2.41 0,1.332 1.081,2.412 2.414,2.412 1.332,0 2.411,-1.08 2.411,-2.412 0,-1.332 -1.079,-2.41 -2.411,-2.41 m -16.899,29.004 c -1.596,0 -2.892,1.295 -2.892,2.891 0,1.598 1.296,2.891 2.892,2.891 1.595,0 2.89,-1.293 2.89,-2.891 0,-1.596 -1.295,-2.891 -2.89,-2.891 m 0,-37.724 c -1.596,0 -2.892,1.295 -2.892,2.892 0,1.597 1.296,2.89 2.892,2.89 1.595,0 2.89,-1.293 2.89,-2.89 0,-1.597 -1.295,-2.892 -2.89,-2.892 m -8.25,19.898 c -1.334,0 -2.413,1.077 -2.413,2.409 0,1.332 1.079,2.413 2.413,2.413 1.332,0 2.411,-1.081 2.411,-2.413 0,-1.332 -1.079,-2.409 -2.411,-2.409 m -13.973,22.355 c -1.332,0 -2.413,1.077 -2.413,2.409 0,1.332 1.081,2.413 2.413,2.413 1.332,0 2.412,-1.081 2.412,-2.413 0,-1.332 -1.08,-2.409 -2.412,-2.409 m -29.473,-56.226 c -1.596,0 -2.892,1.296 -2.892,2.892 0,1.599 1.296,2.891 2.892,2.891 1.596,0 2.89,-1.292 2.89,-2.891 0,-1.596 -1.294,-2.892 -2.89,-2.892 m 331.469,89.44 c 3.095,-9.271 -0.772,-17.928 -18.69,-21.725 -39.514,-10.601 -56.7,12.609 -87.058,21.285 -26.744,7.64 -59.752,8.19 -87.702,0.479 -6.585,-1.444 -14.608,-6.999 -8.993,-6.745 14.134,0.642 22.487,-10.119 25.379,-18.792 0.962,-4.819 0.962,-10.602 -2.893,-13.493 -14.457,-12.529 -31.081,-5.461 -47.465,0.321 -16.384,5.782 -99.345,53.327 -124.082,-12.817 18.311,16.672 45.297,12.496 50.116,-2.923 4.818,-15.423 -6.746,-16.385 -22.167,-20.24 -15.538,-4.39 -35.688,-5.952 -55.355,-8.85 12.046,-5.507 23.683,-12.486 34.588,-20.855 l 36.508,9.243 c 0.629,1.313 1.405,5.686 1.882,8.381 1.19,6.708 1.744,9.143 3.282,10.101 0.403,0.252 0.888,0.381 1.444,0.381 3.685,0 18.98,-7.673 24.607,-10.558 26.521,7.3 98.588,25.548 116.855,29.963 3.166,3.69 9.616,22.519 8.702,45.082 l -0.083,2.073 2.074,-0.068 c 23.21,-0.803 36.072,-11.079 46.406,-19.337 2.342,-1.871 4.554,-3.639 6.667,-5.099 6.636,-4.589 22.78,-4.647 43.221,-4.722 17.573,-0.063 37.493,-0.134 58.106,-2.985 9.233,-1.277 21.638,-3.362 34.689,-6.005 -7.902,17.357 -21.435,33.618 -40.038,47.905"
           style="fill:#29abe2;fill-opacity:1;fill-rule:nonzero;stroke:none"
           id="path123152" /><path
           d="m 525.955,292.193 c -0.002,0.014 -0.002,0.029 -0.005,0.039 -31.663,-1.892 -64.055,-7.458 -101.031,-14.225 -0.013,-0.032 -0.026,-0.062 -0.04,-0.093 37.021,6.762 69.448,12.34 101.076,14.279"
           style="fill:#29abe2;fill-opacity:1;fill-rule:nonzero;stroke:none"
           id="path123154" /><path
           d="M 389.932,271.593 C 325.071,259.842 245.142,246.914 133.789,243.264 v 0 c 111.173,3.642 191.176,16.523 256.124,28.258 0.006,0.025 0.012,0.048 0.019,0.071"
           style="fill:#29abe2;fill-opacity:1;fill-rule:nonzero;stroke:none"
           id="path123156" /><path
           d="m 102.38,242.506 c 2.358,0.037 4.727,0.071 7.058,0.117 -2.331,-0.046 -4.7,-0.08 -7.058,-0.117"
           style="fill:#29abe2;fill-opacity:1;fill-rule:nonzero;stroke:none"
           id="path123158" /><path
           d="m 149.577,212.783 c 1.063,-0.026 1.904,-0.91 1.878,-1.974 -0.026,-1.063 -0.913,-1.907 -1.974,-1.879 -1.066,0.027 -1.908,0.915 -1.881,1.975 0.027,1.065 0.912,1.906 1.977,1.878 m 35.167,5.542 c 2.305,-0.056 4.128,-1.973 4.071,-4.279 -0.059,-2.307 -1.977,-4.13 -4.282,-4.072 -2.305,0.058 -4.129,1.975 -4.069,4.282 0.057,2.306 1.974,4.128 4.28,4.069 m 8.109,-34.267 c -0.046,-1.856 -1.589,-3.322 -3.445,-3.276 -1.854,0.047 -3.321,1.589 -3.273,3.445 0.046,1.855 1.588,3.321 3.442,3.276 1.856,-0.048 3.323,-1.59 3.276,-3.445 m 21.46,-3.755 c 1.065,-0.028 1.905,-0.912 1.879,-1.976 -0.027,-1.062 -0.913,-1.904 -1.975,-1.879 -1.065,0.028 -1.907,0.912 -1.88,1.976 0.028,1.065 0.912,1.904 1.976,1.879 m 2.775,20.818 c 2.307,-0.058 4.129,-1.974 4.069,-4.28 -0.057,-2.306 -1.972,-4.128 -4.28,-4.071 -2.304,0.058 -4.128,1.975 -4.07,4.281 0.058,2.306 1.976,4.127 4.281,4.07 m 9.483,-31.732 c 1.065,-0.027 1.905,-0.912 1.879,-1.976 -0.026,-1.062 -0.912,-1.904 -1.975,-1.877 -1.066,0.026 -1.907,0.91 -1.88,1.976 0.026,1.062 0.912,1.904 1.976,1.877 m 14.846,28.066 c 2.306,-0.059 4.128,-1.975 4.071,-4.28 -0.057,-2.308 -1.976,-4.127 -4.28,-4.071 -2.305,0.058 -4.129,1.975 -4.07,4.281 0.057,2.305 1.973,4.129 4.279,4.07 m 12.541,-18.324 c 1.856,-0.047 3.322,-1.59 3.275,-3.445 -0.046,-1.855 -1.588,-3.323 -3.444,-3.275 -1.855,0.046 -3.322,1.589 -3.274,3.444 0.046,1.855 1.588,3.322 3.443,3.276 m 16.833,-14.713 c 1.066,-0.027 1.906,-0.911 1.879,-1.975 -0.026,-1.065 -0.91,-1.906 -1.976,-1.879 -1.064,0.027 -1.904,0.911 -1.879,1.976 0.029,1.063 0.914,1.905 1.976,1.878 m 6.169,27.963 c 2.928,-0.072 5.239,-2.505 5.166,-5.432 -0.074,-2.927 -2.507,-5.238 -5.434,-5.164 -2.925,0.071 -5.239,2.505 -5.164,5.431 0.074,2.926 2.506,5.239 5.432,5.165 m 30.47,-15.068 c 3.724,-0.094 6.667,-3.19 6.573,-6.915 -0.093,-3.725 -3.188,-6.668 -6.912,-6.574 -3.726,0.095 -6.67,3.189 -6.576,6.913 0.095,3.726 3.19,6.669 6.915,6.576 m 21.843,25.156 c 4.611,-0.115 8.254,-3.948 8.139,-8.559 -0.116,-4.611 -3.948,-8.255 -8.559,-8.14 -4.611,0.117 -8.255,3.95 -8.139,8.56 0.116,4.612 3.946,8.255 8.559,8.139 m 10.165,-30.142 c -0.039,-1.597 -1.365,-2.858 -2.961,-2.817 -1.597,0.041 -2.859,1.367 -2.819,2.963 0.041,1.596 1.366,2.857 2.965,2.818 1.595,-0.041 2.856,-1.365 2.815,-2.964 m 29.369,11.312 c 3.282,-0.083 5.875,-2.81 5.793,-6.091 -0.082,-3.282 -2.812,-5.876 -6.093,-5.792 -3.281,0.083 -5.874,2.808 -5.791,6.091 0.082,3.281 2.809,5.875 6.091,5.792 m 16.883,13.23 c 1.418,-0.035 2.54,-1.216 2.504,-2.635 -0.037,-1.417 -1.214,-2.539 -2.632,-2.504 -1.421,0.039 -2.541,1.215 -2.504,2.634 0.034,1.419 1.213,2.541 2.632,2.505 m 6.258,18.803 c 1.597,-0.04 2.857,-1.367 2.818,-2.963 -0.04,-1.596 -1.368,-2.857 -2.963,-2.816 -1.598,0.039 -2.857,1.366 -2.819,2.961 0.04,1.596 1.369,2.859 2.964,2.818 m 13.114,-27.966 c 3.545,-0.091 6.351,-3.038 6.26,-6.586 -0.089,-3.548 -3.036,-6.35 -6.585,-6.26 -3.547,0.089 -6.35,3.036 -6.26,6.583 0.088,3.547 3.037,6.352 6.585,6.263 m 2.956,15.349 c 1.42,-0.036 2.541,-1.214 2.505,-2.634 -0.036,-1.419 -1.217,-2.54 -2.633,-2.503 -1.419,0.035 -2.542,1.214 -2.505,2.633 0.037,1.419 1.216,2.541 2.633,2.504 M 154.513,188.65 c 41.257,-26.224 96.29,-40.666 154.959,-40.666 58.667,0 113.697,14.442 154.956,40.666 26.106,16.594 44.554,36.578 54.234,58.246 -16.816,-5.021 -47.207,-14.217 -49.546,-17.682 -0.628,-0.943 -1.384,-2.251 -2.258,-3.768 -0.675,-1.173 -1.433,-2.473 -2.258,-3.848 0.123,0.003 0.24,0.03 0.363,0.027 3.417,-0.086 6.113,-2.924 6.027,-6.34 -0.085,-3.413 -2.923,-6.112 -6.337,-6.023 -2.597,0.063 -4.771,1.723 -5.631,4.016 -4.528,-5.981 -10.666,-12.266 -19.253,-16.97 l -2.409,-1.321 -0.422,2.715 c -0.164,1.051 -0.348,2.064 -0.546,3.047 -0.052,0.001 -0.101,-0.013 -0.154,-0.012 -4.078,0.103 -7.301,3.494 -7.198,7.574 0.059,2.376 1.255,4.439 3.034,5.747 -3.112,6.575 -6.586,10.135 -7.984,11.436 -20.655,-4.404 -42.33,-7.333 -64.681,-8.508 2.336,-1.453 3.869,-4.065 3.794,-7.015 -0.11,-4.435 -3.797,-7.94 -8.23,-7.828 -4.434,0.112 -7.937,3.797 -7.826,8.231 0.065,2.575 1.341,5.017 3.262,6.439 -4.317,-0.134 -8.652,-0.037 -13.014,-0.037 h -0.007 c -6.37,0 -12.527,-0.041 -18.437,0.205 l -37.288,-16.218 10.009,8.392 c 1.295,1.093 5.2,4.358 10.354,8.673 -18.322,1.414 -33.172,3.561 -42.791,4.884 -4.731,0.652 -8.468,1.306 -10.807,1.494 -1.882,-0.068 -21.123,-4.663 -32.787,-7.589 l -5.014,-1.222 6.734,9.626 -25.099,3.706 c -2.73,-2.073 -13.195,-9.206 -30.783,-11.759 l -3.992,-0.579 2.057,3.471 c 2.961,4.997 5.617,12.773 6.825,16.578 l -24.273,2.08 -0.016,-0.093 -0.622,0.147 -5.19,0.446 c -1.763,-3.052 -7.205,-11.488 -17.775,-20.09 9.557,-10.931 21.616,-21.122 36.02,-30.278"
           style="fill:#29abe2;fill-opacity:1;fill-rule:nonzero;stroke:none"
           id="path123160" /><path
           d="m 512.15,266.358 c 0.948,-0.044 1.921,-0.075 2.915,-0.097 l -1.359,0.735 c -0.521,-0.209 -1.049,-0.41 -1.556,-0.638"
           style="fill:#29abe2;fill-opacity:1;fill-rule:nonzero;stroke:none"
           id="path123162" /><path
           d="m 400.057,273.365 c 0.006,0.025 0.014,0.052 0.023,0.078 -2.3,-0.422 -4.619,-0.844 -6.957,-1.271 -0.014,-0.025 -0.029,-0.052 -0.043,-0.077 2.346,0.425 4.669,0.848 6.977,1.27"
           style="fill:#29abe2;fill-opacity:1;fill-rule:nonzero;stroke:none"
           id="path123164" /><path
           d="m 120.752,242.879 c -2.951,-0.075 -5.94,-0.14 -8.935,-0.203 2.995,0.063 5.984,0.128 8.935,0.203"
           style="fill:#29abe2;fill-opacity:1;fill-rule:nonzero;stroke:none"
           id="path123166" /><path
           d="m 123.03,242.944 v 0 c -0.279,-0.008 -0.552,-0.016 -0.828,-0.024 0.276,0.008 0.549,0.016 0.828,0.024"
           style="fill:#29abe2;fill-opacity:1;fill-rule:nonzero;stroke:none"
           id="path123168" /><path
           d="m 145.1,391.615 c 44.037,27.99 102.411,43.404 164.37,43.404 61.962,0 120.334,-15.414 164.371,-43.404 33.396,-21.228 55.708,-47.842 65.124,-76.982 4.95,-1.197 9.802,-2.458 14.42,-3.768 -9.169,32.778 -33.235,62.767 -70.027,86.491 -46.586,30.043 -108.34,46.587 -173.888,46.587 -65.546,0 -127.3,-16.544 -173.888,-46.587 -42.462,-27.38 -67.978,-63.105 -73.194,-101.833 4.346,-0.837 8.677,-1.866 12.987,-3.084 3.583,37.744 28.012,72.663 69.725,99.176"
           style="fill:#3fa9f5;fill-opacity:1;fill-rule:nonzero;stroke:none"
           id="path123170" /><path
           d="m 88.509,231.118 c -2.114,3.853 -3.981,7.765 -5.611,11.731 -5.252,5.077 -12.099,10.966 -19.557,16.945 2.936,-15.448 9.145,-30.36 18.382,-44.4 1.691,4.041 3.907,9.201 6.786,15.724"
           style="fill:#3fa9f5;fill-opacity:1;fill-rule:nonzero;stroke:none"
           id="path123172" /><path
           d="m 554.051,268.692 -0.358,-0.183 -1.125,-2.05 c -0.209,-0.377 -4.71,-8.395 -12.675,-12.616 -8.818,-30.32 -31.504,-58.044 -66.052,-80.004 -44.037,-27.988 -102.411,-43.403 -164.369,-43.403 -61.959,0 -120.335,15.415 -164.372,43.403 -16.598,10.551 -30.448,22.432 -41.351,35.292 -3.955,-2.125 -8.327,-4.109 -13.125,-5.866 11.707,-14.366 26.779,-27.62 44.96,-39.345 46.584,-30.041 108.34,-46.585 173.888,-46.585 65.548,0 127.3,16.544 173.886,46.585 43.302,27.924 68.998,64.52 73.496,104.133 -0.801,0.196 -1.734,0.413 -2.803,0.639"
           style="fill:#3fa9f5;fill-opacity:1;fill-rule:nonzero;stroke:none"
           id="path123174" /><path
           d="m 542.99,268.119 c 0.557,0.077 1.09,0.151 1.596,0.223 l -1.379,1.423 c -0.07,-0.549 -0.14,-1.099 -0.217,-1.646"
           style="fill:#3fa9f5;fill-opacity:1;fill-rule:nonzero;stroke:none"
           id="path123176" /><path
           d="m 549.19,286.903 c 0.636,-0.013 2.333,0.816 4.29,1.85 -2.059,-1.038 -3.793,-1.859 -4.29,-1.85"
           style="fill:#3fa9f5;fill-opacity:1;fill-rule:nonzero;stroke:none"
           id="path123178" /><path
           d="m 549.19,286.903 c -0.904,0.019 -0.192,1.555 0.503,3.072 -0.79,-1.514 -1.597,-3.047 -0.503,-3.072"
           style="fill:#3fa9f5;fill-opacity:1;fill-rule:nonzero;stroke:none"
           id="path123180" /><path
           d="m 549.566,292.93 c -2.211,0.009 -3.834,-0.009 -6.628,-0.04 v -0.012 c 2.794,0.036 4.417,0.057 6.628,0.052"
           style="fill:#3fa9f5;fill-opacity:1;fill-rule:nonzero;stroke:none"
           id="path123182" /><path
           d="m 548.565,269.688 -2.452,-1.123 c 1.719,0.258 2.997,0.471 3.727,0.596 l -0.277,0.37 c -0.327,0.054 -0.659,0.106 -0.998,0.157"
           style="fill:#3fa9f5;fill-opacity:1;fill-rule:nonzero;stroke:none"
           id="path123184" /><path
           d="m 54.808,288.94 c -2.598,0.503 -5.052,1.02 -7.341,1.354 -2.279,0.395 -4.383,0.658 -6.248,0.898 -1.865,0.228 -3.497,0.391 -4.842,0.508 -2.691,0.23 -4.236,0.263 -4.236,0.263 0,0 1.545,0.027 4.247,-0.099 1.351,-0.064 2.99,-0.161 4.868,-0.315 1.876,-0.169 3.998,-0.351 6.297,-0.659 2.307,-0.247 4.788,-0.665 7.418,-1.072 2.623,-0.454 5.382,-0.977 8.222,-1.585 2.825,-0.676 5.775,-1.272 8.702,-2.143 1.472,-0.408 2.958,-0.819 4.446,-1.232 1.471,-0.476 2.948,-0.958 4.424,-1.436 2.974,-0.906 5.866,-2.047 8.725,-3.142 2.89,-1.024 5.599,-2.355 8.279,-3.514 2.703,-1.12 5.162,-2.512 7.559,-3.715 1.184,-0.623 2.359,-1.197 3.46,-1.809 1.086,-0.646 2.13,-1.27 3.138,-1.869 1.999,-1.218 3.883,-2.261 5.463,-3.318 1.569,-1.082 2.938,-2.026 4.062,-2.803 2.256,-1.557 3.542,-2.446 3.542,-2.446 l -2.356,-3.051 c 0,0 -1.22,0.914 -3.354,2.512 -1.068,0.801 -2.364,1.774 -3.852,2.888 -1.505,1.095 -3.304,2.179 -5.211,3.447 -0.96,0.626 -1.962,1.277 -2.997,1.951 -1.056,0.642 -2.182,1.247 -3.321,1.901 -2.299,1.27 -4.666,2.737 -7.274,3.938 -2.59,1.24 -5.207,2.657 -8.014,3.774 -2.774,1.19 -5.586,2.431 -8.488,3.438 -1.441,0.531 -2.882,1.062 -4.318,1.593 -1.459,0.464 -2.91,0.928 -4.351,1.388 -2.87,0.977 -5.767,1.68 -8.544,2.463 -2.797,0.712 -5.517,1.337 -8.105,1.892 m 123.582,-5.41 c 4.306,-1.782 8.593,-3.603 12.852,-5.483 4.119,-1.79 8.209,-3.639 12.303,-5.483 4.827,1.38 9.666,2.706 14.499,4.053 l 14.945,4.005 14.983,3.866 15.013,3.736 c 5.002,1.255 10.029,2.404 15.045,3.61 5.013,1.203 10.053,2.312 15.079,3.471 10.077,2.221 20.162,4.404 30.325,6.296 -9.838,-3.169 -19.748,-6.047 -29.671,-8.883 -4.974,-1.37 -9.931,-2.794 -14.915,-4.121 -4.986,-1.324 -9.955,-2.703 -14.953,-3.979 l -14.983,-3.854 -15.015,-3.723 -15.052,-3.584 c -5.03,-1.144 -10.055,-2.314 -15.093,-3.422 l -0.485,-0.107 -0.369,0.197 c -4.109,2.185 -8.222,4.362 -12.304,6.601 -4.094,2.215 -8.158,4.493 -12.204,6.804 m 164.962,-6.124 c 1.829,0 3.311,-0.89 3.311,-1.987 0,-1.098 -1.482,-1.988 -3.311,-1.988 -1.832,0 -3.315,0.89 -3.315,1.988 0,1.097 1.483,1.987 3.315,1.987 m 25.055,13.492 c 1.831,0 3.313,-0.889 3.313,-1.987 0,-1.099 -1.482,-1.986 -3.313,-1.986 -1.829,0 -3.313,0.887 -3.313,1.986 0,1.098 1.484,1.987 3.313,1.987 m 10.6,-12.529 c 1.833,0 3.313,-0.89 3.313,-1.987 0,-1.097 -1.48,-1.987 -3.313,-1.987 -1.827,0 -3.311,0.89 -3.311,1.987 0,1.097 1.484,1.987 3.311,1.987 m -62.643,-6.323 c -1.331,0 -2.409,0.646 -2.409,1.445 0,0.798 1.078,1.447 2.409,1.447 1.33,0 2.41,-0.649 2.41,-1.447 0,-0.799 -1.08,-1.445 -2.41,-1.445 m -13.491,-10.602 c -1.33,0 -2.409,0.647 -2.409,1.446 0,0.798 1.079,1.445 2.409,1.445 1.33,0 2.408,-0.647 2.408,-1.445 0,-0.799 -1.078,-1.446 -2.408,-1.446 m -23.13,1.927 c -1.332,0 -2.409,0.648 -2.409,1.446 0,0.798 1.077,1.446 2.409,1.446 1.331,0 2.41,-0.648 2.41,-1.446 0,-0.798 -1.079,-1.446 -2.41,-1.446 m -20.24,-6.746 c -1.329,0 -2.407,0.648 -2.407,1.446 0,0.799 1.078,1.445 2.407,1.445 1.331,0 2.41,-0.646 2.41,-1.445 0,-0.798 -1.079,-1.446 -2.41,-1.446 m -58.786,-6.746 c -1.332,0 -2.411,0.647 -2.411,1.445 0,0.799 1.079,1.447 2.411,1.447 1.33,0 2.408,-0.648 2.408,-1.447 0,-0.798 -1.078,-1.445 -2.408,-1.445 m 243.826,45.838 c 1.831,0 3.312,-0.891 3.312,-1.987 0,-1.096 -1.481,-1.989 -3.312,-1.989 -1.83,0 -3.314,0.893 -3.314,1.989 0,1.096 1.484,1.987 3.314,1.987 m 27.948,-2.47 c 1.331,0 2.41,-0.647 2.41,-1.444 0,-0.798 -1.079,-1.446 -2.41,-1.446 -1.33,0 -2.409,0.648 -2.409,1.446 0,0.797 1.079,1.444 2.409,1.444 m 43.693,5.142 c 1.863,0 3.373,-1.043 3.373,-2.331 0,-1.285 -1.51,-2.328 -3.373,-2.328 -1.864,0 -3.374,1.043 -3.374,2.328 0,1.288 1.51,2.331 3.374,2.331 M 100.282,242.471 c 0.703,0.01 1.397,0.024 2.098,0.035 2.358,0.037 4.727,0.071 7.058,0.117 0.801,0.016 1.582,0.037 2.379,0.053 2.995,0.063 5.984,0.129 8.935,0.203 0.487,0.012 0.964,0.028 1.45,0.041 0.278,0.008 0.549,0.016 0.828,0.024 l -12.987,3.079 23.746,-2.759 c 111.353,3.65 191.282,16.578 256.143,28.329 0.747,2.908 1.942,6.427 3.369,9.857 1.601,3.779 3.376,7.543 5.015,10.219 0.786,1.356 1.524,2.452 2.058,3.212 0.535,0.76 0.882,1.177 0.882,1.177 0,0 -0.036,-0.541 -0.173,-1.46 -0.137,-0.919 -0.357,-2.222 -0.721,-3.745 -0.693,-3.069 -1.882,-7.023 -3.492,-10.86 -1.166,-2.792 -2.477,-5.515 -3.747,-7.82 2.338,0.426 4.657,0.848 6.957,1.27 0.734,2.491 1.724,5.276 2.858,8.007 1.602,3.779 3.375,7.543 5.015,10.219 0.785,1.356 1.524,2.452 2.059,3.212 0.535,0.76 0.882,1.177 0.882,1.177 0,0 -0.04,-0.541 -0.174,-1.46 -0.135,-0.919 -0.356,-2.222 -0.721,-3.745 -0.693,-3.069 -1.882,-7.023 -3.492,-10.86 -0.851,-2.039 -1.779,-4.038 -2.714,-5.869 2.186,0.401 4.356,0.801 6.51,1.196 0.644,1.976 1.416,4.068 2.272,6.128 1.601,3.781 3.375,7.545 5.015,10.221 0.785,1.356 1.523,2.452 2.057,3.212 0.537,0.76 0.883,1.177 0.883,1.177 0,0 -0.037,-0.541 -0.174,-1.46 -0.134,-0.919 -0.355,-2.222 -0.72,-3.745 -0.693,-3.069 -1.881,-7.023 -3.491,-10.86 -0.557,-1.335 -1.149,-2.652 -1.753,-3.919 2.078,0.381 4.14,0.76 6.19,1.137 0.495,1.395 1.043,2.825 1.632,4.237 1.601,3.781 3.374,7.545 5.015,10.221 0.785,1.356 1.523,2.452 2.058,3.212 0.535,0.76 0.882,1.177 0.882,1.177 0,0 -0.037,-0.541 -0.174,-1.46 -0.135,-0.919 -0.355,-2.222 -0.721,-3.745 -0.692,-3.069 -1.88,-7.023 -3.492,-10.86 -0.278,-0.668 -0.569,-1.33 -0.861,-1.986 36.974,6.767 69.366,12.333 101.029,14.225 5.876,0.352 11.726,0.577 17.574,0.658 2.21,0.033 4.42,0.049 6.63,0.038 1.073,-0.002 0.316,-1.467 -0.461,-2.953 -0.695,-1.517 -1.407,-3.053 -0.503,-3.072 0.495,-0.009 2.231,0.812 4.29,1.85 2.979,1.575 6.55,3.616 7.924,3.903 0.445,0.176 0.783,0.281 0.958,0.275 1.746,-0.058 3.397,-0.14 5.014,-0.234 -1.563,0.81 -3.239,1.453 -4.855,2.192 -1.778,0.831 -3.651,1.478 -5.503,2.168 -3.675,1.457 -7.504,2.551 -11.297,3.744 -1.884,0.633 -3.834,1.071 -5.76,1.584 l -5.793,1.5 c -3.877,0.945 -7.813,1.686 -11.717,2.546 l -2.937,0.61 -2.961,0.503 -5.925,1.006 -5.929,1.007 -5.961,0.793 -11.934,1.568 -11.991,1.166 c -4,0.376 -7.993,0.831 -12.007,1.04 l -12.034,0.789 -6.017,0.395 -6.027,0.237 -12.058,0.442 c -4.021,0.141 -8.04,0.339 -12.064,0.333 l -24.145,0.246 -0.276,0.003 -0.198,0.164 -6.291,5.198 c -2.084,1.755 -4.221,3.433 -6.36,5.114 l -3.205,2.525 c -1.055,0.858 -2.173,1.632 -3.263,2.444 l -3.289,2.412 c -1.085,0.822 -2.205,1.588 -3.349,2.32 l -3.404,2.243 c -1.116,0.779 -2.299,1.443 -3.483,2.109 l -3.542,2.017 c -1.182,0.673 -2.446,1.181 -3.665,1.781 -1.241,0.547 -2.434,1.218 -3.717,1.669 l -3.828,1.41 c -1.264,0.515 -2.58,0.857 -3.895,1.212 l -3.94,1.083 3.964,-0.996 c 1.324,-0.325 2.652,-0.638 3.927,-1.126 l 3.873,-1.327 c 1.297,-0.426 2.506,-1.07 3.768,-1.594 1.236,-0.573 2.521,-1.059 3.722,-1.705 l 3.604,-1.946 c 1.205,-0.642 2.411,-1.286 3.549,-2.043 l 3.469,-2.179 c 1.168,-0.709 2.311,-1.454 3.417,-2.255 l 3.355,-2.345 c 1.114,-0.791 2.254,-1.542 3.33,-2.38 l 3.269,-2.462 c 2.185,-1.634 4.366,-3.273 6.491,-4.981 l 6.207,-4.902 23.921,0.292 c 4.031,0.098 8.063,-0.011 12.094,-0.064 l 12.097,-0.171 6.05,-0.104 6.044,-0.259 12.097,-0.524 c 4.036,-0.12 8.059,-0.487 12.086,-0.775 l 12.083,-0.903 12.056,-1.31 6.03,-0.666 6.007,-0.881 6.007,-0.885 3.007,-0.442 2.99,-0.552 c 3.98,-0.778 7.981,-1.442 11.948,-2.316 l 5.936,-1.395 c 1.978,-0.481 3.971,-0.883 5.922,-1.49 3.918,-1.135 7.863,-2.171 11.718,-3.594 1.935,-0.673 3.886,-1.301 5.781,-2.131 1.901,-0.816 3.841,-1.488 5.699,-2.456 l 2.813,-1.365 c 0.935,-0.462 1.843,-1.029 2.765,-1.541 0.923,-0.497 1.831,-1.095 2.73,-1.712 0.451,-0.306 0.893,-0.584 1.391,-0.996 0.1,-0.081 0.203,-0.162 0.307,-0.247 1.523,-0.169 3.105,-0.353 4.739,-0.54 0.088,0.433 0.118,0.853 0.08,1.261 -0.058,0.596 -1.489,6.104 -33.781,15.192 -19.653,5.531 -45.136,10.737 -68.167,13.92 -20.356,2.815 -40.138,2.888 -57.589,2.951 -21.11,0.077 -37.783,0.137 -45.402,5.404 -2.222,1.538 -4.484,3.346 -6.881,5.26 -9.575,7.653 -21.422,17.115 -42.071,18.393 0.397,-18.439 -3.815,-34.323 -7.527,-41.988 l 52.599,12.211 -55.4,-16.521 c -0.002,-0.002 -0.004,-0.004 -0.006,-0.004 l -0.363,-0.332 -0.483,0.108 c -1.017,-0.246 -2.238,-0.661 -3.624,-0.661 h -0.003 c -22.372,0 -89.755,-22.798 -114.368,-29.599 l -0.727,-0.315 -0.67,0.289 c -9.019,4.654 -19.752,9.621 -22.897,10.354 -0.518,-1.423 -1.121,-4.85 -1.543,-7.218 -0.6,-3.399 -1.069,-5.844 -1.582,-7.59 l 13.052,1.901 -14.71,-5.147 c -0.011,-0.01 -0.02,-0.022 -0.032,-0.031 l -0.351,-0.315 -2.174,-0.549 -1.755,-0.614 -0.04,0.159 -28.242,-7.15 c -1.964,-0.516 -9.11,-2.387 -16.274,-4.266 -2.103,-0.56 -4.194,-1.17 -6.161,-1.716 -1.966,-0.553 -3.802,-1.069 -5.373,-1.509 -3.144,-0.885 -5.24,-1.474 -5.24,-1.474 0,0 2.015,0.816 5.04,2.042 1.512,0.612 3.277,1.325 5.166,2.091 1.894,0.76 3.902,1.596 5.93,2.385 2.39,0.92 4.773,1.836 6.956,2.676 -28.919,21.8 -62.877,33.81 -95.918,33.81 -4.225,0 -8.446,-0.202 -12.606,-0.597 19.343,-11.236 52.167,-36.056 66.99,-51.476 3.032,0.027 6.062,0.054 9.049,0.095 0.794,0.011 1.571,0.027 2.361,0.039"
           style="fill:#0071bc;fill-opacity:1;fill-rule:nonzero;stroke:none"
           id="path123186" /><path
           d="m 317.612,224.294 c 0.019,0.748 0.26,1.436 0.646,2.019 -4.655,-3.857 -9.439,-7.846 -14.017,-11.68 l 14.943,6.464 c -0.977,0.72 -1.605,1.889 -1.572,3.197"
           style="fill:#0071bc;fill-opacity:1;fill-rule:nonzero;stroke:none"
           id="path123188" /><path
           d="m 335.067,228.353 c -1.595,0.041 -2.857,1.367 -2.816,2.964 0.039,1.596 1.366,2.858 2.962,2.817 1.597,-0.039 2.858,-1.366 2.817,-2.962 -0.041,-1.597 -1.366,-2.859 -2.963,-2.819 M 320,227.757 c 0.481,0.198 1.009,0.307 1.563,0.294 2.129,-0.053 3.81,-1.824 3.756,-3.951 -0.003,-0.129 -0.031,-0.247 -0.046,-0.371 l 80.665,34.881 c -0.769,0.046 -1.668,0.074 -2.718,0.074 -16.714,0 -52.02,-6.92 -55.428,-8.739 -2.071,-1.104 -14.187,-10.927 -27.792,-22.188"
           style="fill:#0071bc;fill-opacity:1;fill-rule:nonzero;stroke:none"
           id="path123190" /><path
           d="m 122.009,304.159 c -1.239,0 -2.363,-0.441 -3.267,-1.154 0.431,0.112 0.876,0.192 1.341,0.192 2.927,0 5.301,-2.374 5.301,-5.301 0,-1.688 -0.805,-3.175 -2.035,-4.145 2.276,0.596 3.962,2.645 3.962,5.107 0,2.929 -2.374,5.301 -5.302,5.301"
           style="fill:#3fa9f5;fill-opacity:1;fill-rule:nonzero;stroke:none"
           id="path123192" /><path
           d="m 136.225,312.924 c -0.722,0 -1.344,-0.401 -1.674,-0.989 0.944,-0.126 1.674,-0.924 1.674,-1.902 0,-0.341 -0.097,-0.659 -0.255,-0.939 0.084,-0.011 0.169,-0.024 0.255,-0.024 1.066,0 1.928,0.862 1.928,1.928 0,1.064 -0.862,1.926 -1.928,1.926"
           style="fill:#3fa9f5;fill-opacity:1;fill-rule:nonzero;stroke:none"
           id="path123194" /><path
           d="m 100.567,303.287 c -0.722,0 -1.344,-0.403 -1.674,-0.989 0.944,-0.126 1.674,-0.924 1.674,-1.901 0,-0.344 -0.097,-0.66 -0.253,-0.939 0.082,-0.012 0.167,-0.025 0.253,-0.025 1.066,0 1.926,0.86 1.926,1.926 0,1.064 -0.86,1.928 -1.926,1.928"
           style="fill:#3fa9f5;fill-opacity:1;fill-rule:nonzero;stroke:none"
           id="path123196" /><path
           d="m 116.067,320.634 c 0,3.327 -2.697,6.023 -6.024,6.023 -1.364,0 -2.606,-0.469 -3.613,-1.231 0.538,0.157 1.095,0.267 1.686,0.267 3.327,0 6.025,-2.695 6.025,-6.022 0,-1.963 -0.955,-3.691 -2.409,-4.79 2.5,0.734 4.335,3.016 4.335,5.753"
           style="fill:#3fa9f5;fill-opacity:1;fill-rule:nonzero;stroke:none"
           id="path123198" /><path
           d="m 124.298,330.955 c 0,-0.547 -0.188,-1.007 -0.493,-1.007 h 0.01 c 1.332,0 2.411,0.637 2.411,1.969 0,1.333 -1.079,2.19 -2.411,2.19 -0.787,0 -1.479,-0.27 -1.918,-0.853 1.327,-0.003 2.401,-0.97 2.401,-2.299"
           style="fill:#3fa9f5;fill-opacity:1;fill-rule:nonzero;stroke:none"
           id="path123200" /><path
           d="m 164.776,308.693 c 0,-0.546 -0.189,-1.099 -0.494,-1.099 h 0.011 c 1.332,0 2.411,0.73 2.411,2.062 0,1.335 -1.079,2.24 -2.411,2.24 -0.787,0 -1.48,-0.294 -1.918,-0.878 1.326,-0.005 2.401,-0.996 2.401,-2.325"
           style="fill:#3fa9f5;fill-opacity:1;fill-rule:nonzero;stroke:none"
           id="path123202" /><path
           d="m 251.794,362.477 c 0,-2.754 -1.386,-5.18 -3.497,-6.626 3.155,1.083 5.425,4.068 5.425,7.588 0,4.435 -3.595,8.032 -8.031,8.032 -1.683,0 -3.243,-0.519 -4.534,-1.403 0.819,0.28 1.692,0.439 2.607,0.439 4.435,0 8.03,-3.594 8.03,-8.03"
           style="fill:#3fa9f5;fill-opacity:1;fill-rule:nonzero;stroke:none"
           id="path123204" /><path
           d="m 266.25,345.771 c -0.863,0 -1.63,-0.385 -2.159,-0.985 0.078,0.005 0.153,0.024 0.233,0.024 1.594,0 2.891,-1.297 2.891,-2.893 0,-0.732 -0.282,-1.394 -0.731,-1.905 1.484,0.121 2.658,1.351 2.658,2.869 0,1.596 -1.294,2.89 -2.892,2.89"
           style="fill:#3fa9f5;fill-opacity:1;fill-rule:nonzero;stroke:none"
           id="path123206" /><path
           d="m 281.67,349.305 c 0,-1.118 -0.484,-2.119 -1.246,-2.823 1.803,0.324 3.173,1.892 3.173,3.788 0,2.129 -1.725,3.855 -3.854,3.855 -1.009,0 -1.921,-0.397 -2.608,-1.034 0.223,0.041 0.447,0.072 0.682,0.072 2.128,0 3.853,-1.728 3.853,-3.858"
           style="fill:#3fa9f5;fill-opacity:1;fill-rule:nonzero;stroke:none"
           id="path123208" /><path
           d="m 269.464,384.323 c 2.838,0 5.14,-2.302 5.14,-5.141 0,-1.627 -0.771,-3.059 -1.95,-4.001 2.223,0.563 3.877,2.565 3.877,4.965 0,2.838 -2.303,5.139 -5.141,5.139 -1.209,0 -2.31,-0.436 -3.188,-1.138 0.405,0.103 0.823,0.176 1.262,0.176"
           style="fill:#3fa9f5;fill-opacity:1;fill-rule:nonzero;stroke:none"
           id="path123210" /><path
           d="m 210.032,358.944 c 0,-0.733 -0.281,-1.396 -0.73,-1.903 1.485,0.119 2.656,1.351 2.656,2.865 0,1.597 -1.294,2.892 -2.89,2.892 -0.863,0 -1.629,-0.387 -2.159,-0.985 0.077,0.006 0.154,0.022 0.233,0.022 1.596,0 2.89,-1.293 2.89,-2.891"
           style="fill:#3fa9f5;fill-opacity:1;fill-rule:nonzero;stroke:none"
           id="path123212" /><path
           d="m 169.876,362.477 c 0,-2.484 -1.235,-4.669 -3.113,-6.008 2.922,0.983 5.039,3.715 5.039,6.97 0,4.081 -3.307,7.391 -7.388,7.391 -1.597,0 -3.065,-0.519 -4.274,-1.381 0.741,0.249 1.522,0.416 2.346,0.416 4.081,0 7.39,-3.308 7.39,-7.388"
           style="fill:#3fa9f5;fill-opacity:1;fill-rule:nonzero;stroke:none"
           id="path123214" /><path
           d="m 193.329,370.83 c 0,-0.609 -0.222,-1.159 -0.574,-1.6 1.386,0.039 2.499,1.168 2.499,2.563 0,1.42 -1.15,2.57 -2.57,2.57 -0.81,0 -1.526,-0.384 -1.996,-0.97 0.023,0 0.046,0.007 0.07,0.007 1.419,0 2.571,-1.152 2.571,-2.57"
           style="fill:#3fa9f5;fill-opacity:1;fill-rule:nonzero;stroke:none"
           id="path123216" /><path
           d="m 215.493,377.576 c 0,-0.609 -0.22,-1.159 -0.573,-1.599 1.388,0.037 2.5,1.168 2.5,2.562 0,1.42 -1.15,2.57 -2.569,2.57 -0.812,0 -1.526,-0.383 -1.998,-0.97 0.025,0 0.046,0.007 0.071,0.007 1.419,0 2.569,-1.149 2.569,-2.57"
           style="fill:#3fa9f5;fill-opacity:1;fill-rule:nonzero;stroke:none"
           id="path123218" /><path
           d="m 140.482,354.447 c 0,-2.025 -0.988,-3.808 -2.492,-4.933 2.551,0.762 4.419,3.1 4.419,5.894 0,3.417 -2.769,6.186 -6.184,6.186 -1.391,0 -2.66,-0.477 -3.693,-1.248 0.563,0.167 1.147,0.285 1.765,0.285 3.417,0 6.185,-2.769 6.185,-6.184"
           style="fill:#3fa9f5;fill-opacity:1;fill-rule:nonzero;stroke:none"
           id="path123220" /><path
           d="m 235.412,394.603 c 0,-1.935 -0.938,-3.634 -2.368,-4.721 2.475,0.721 4.294,2.978 4.294,5.681 0,3.285 -2.659,5.944 -5.943,5.944 -1.35,0 -2.581,-0.466 -3.579,-1.225 0.529,0.156 1.075,0.263 1.652,0.263 3.284,0 5.944,-2.658 5.944,-5.942"
           style="fill:#3fa9f5;fill-opacity:1;fill-rule:nonzero;stroke:none"
           id="path123222" /><path
           d="m 326.807,387.534 c 0,-1.687 -0.804,-3.172 -2.034,-4.144 2.275,0.595 3.96,2.648 3.96,5.107 0,2.929 -2.372,5.301 -5.298,5.301 -1.241,0 -2.367,-0.443 -3.27,-1.155 0.431,0.113 0.875,0.192 1.34,0.192 2.928,0 5.302,-2.372 5.302,-5.301"
           style="fill:#3fa9f5;fill-opacity:1;fill-rule:nonzero;stroke:none"
           id="path123224" /><path
           d="m 297.413,403.275 c 0,-2.24 -1.105,-4.207 -2.784,-5.435 2.724,0.868 4.711,3.388 4.711,6.399 0,3.725 -3.022,6.749 -6.747,6.749 -1.488,0 -2.849,-0.499 -3.964,-1.313 0.646,0.207 1.323,0.346 2.035,0.346 3.728,0 6.749,-3.019 6.749,-6.746"
           style="fill:#3fa9f5;fill-opacity:1;fill-rule:nonzero;stroke:none"
           id="path123226" /><path
           d="m 264.322,400.705 c 0,-0.731 -0.281,-1.394 -0.73,-1.901 1.487,0.119 2.657,1.347 2.657,2.865 0,1.597 -1.293,2.892 -2.89,2.892 -0.864,0 -1.63,-0.388 -2.16,-0.988 0.078,0.008 0.155,0.022 0.233,0.022 1.597,0 2.89,-1.29 2.89,-2.89"
           style="fill:#3fa9f5;fill-opacity:1;fill-rule:nonzero;stroke:none"
           id="path123228" /><path
           d="m 199.752,390.105 c 0,-2.117 -1.037,-3.978 -2.614,-5.148 2.622,0.808 4.541,3.223 4.541,6.11 0,3.349 -2.568,6.066 -5.837,6.368 -0.197,0.017 -0.388,0.058 -0.588,0.058 -1.432,0 -2.742,-0.486 -3.809,-1.277 0.598,0.186 1.222,0.314 1.882,0.314 3.548,0 6.425,-2.876 6.425,-6.425"
           style="fill:#3fa9f5;fill-opacity:1;fill-rule:nonzero;stroke:none"
           id="path123230" /><path
           d="m 347.527,399.422 c 0,-0.916 -0.369,-1.744 -0.962,-2.352 1.631,0.233 2.888,1.622 2.888,3.313 0,1.859 -1.503,3.362 -3.359,3.362 -0.941,0 -1.789,-0.39 -2.4,-1.011 0.156,0.023 0.31,0.048 0.472,0.048 1.856,0 3.361,-1.505 3.361,-3.36"
           style="fill:#3fa9f5;fill-opacity:1;fill-rule:nonzero;stroke:none"
           id="path123232" /><path
           d="m 412.098,392.674 c 0,-0.914 -0.369,-1.743 -0.963,-2.35 1.633,0.23 2.89,1.621 2.89,3.314 0,1.858 -1.504,3.362 -3.362,3.362 -0.939,0 -1.788,-0.391 -2.397,-1.013 0.155,0.025 0.31,0.046 0.471,0.046 1.856,0 3.361,-1.502 3.361,-3.359"
           style="fill:#3fa9f5;fill-opacity:1;fill-rule:nonzero;stroke:none"
           id="path123234" /><path
           d="m 385.755,379.182 c 0,-1.252 -0.565,-2.366 -1.439,-3.13 1.92,0.374 3.368,2.064 3.368,4.094 0,2.307 -1.87,4.177 -4.178,4.177 -1.052,0 -2.002,-0.404 -2.736,-1.045 0.261,0.053 0.531,0.081 0.809,0.081 2.307,0 4.176,-1.871 4.176,-4.177"
           style="fill:#3fa9f5;fill-opacity:1;fill-rule:nonzero;stroke:none"
           id="path123236" /><path
           d="m 414.347,366.975 c 2.305,0 4.175,-1.869 4.175,-4.177 0,-1.254 -0.563,-2.365 -1.437,-3.13 1.919,0.377 3.365,2.065 3.365,4.093 0,2.31 -1.87,4.178 -4.177,4.178 -1.052,0 -2.002,-0.403 -2.737,-1.047 0.262,0.055 0.532,0.083 0.811,0.083"
           style="fill:#3fa9f5;fill-opacity:1;fill-rule:nonzero;stroke:none"
           id="path123238" /><path
           d="m 385.755,397.814 c 0,-0.342 -0.096,-0.659 -0.253,-0.937 0.083,-0.011 0.167,-0.025 0.253,-0.025 1.065,0 1.929,0.862 1.929,1.927 0,1.064 -0.864,1.926 -1.929,1.926 -0.722,0 -1.343,-0.4 -1.673,-0.991 0.943,-0.122 1.673,-0.922 1.673,-1.9"
           style="fill:#3fa9f5;fill-opacity:1;fill-rule:nonzero;stroke:none"
           id="path123240" /><path
           d="m 451.29,366.975 c 0,-0.343 -0.098,-0.659 -0.254,-0.938 0.085,-0.013 0.168,-0.023 0.254,-0.023 1.065,0 1.928,0.862 1.928,1.923 0,1.065 -0.863,1.929 -1.928,1.929 -0.722,0 -1.343,-0.403 -1.673,-0.99 0.943,-0.126 1.673,-0.923 1.673,-1.901"
           style="fill:#3fa9f5;fill-opacity:1;fill-rule:nonzero;stroke:none"
           id="path123242" /><path
           d="m 373.227,408.416 c 0,-0.343 -0.096,-0.659 -0.254,-0.939 0.085,-0.012 0.168,-0.023 0.254,-0.023 1.065,0 1.927,0.861 1.927,1.924 0,1.066 -0.862,1.929 -1.927,1.929 -0.723,0 -1.344,-0.401 -1.674,-0.991 0.944,-0.126 1.674,-0.922 1.674,-1.9"
           style="fill:#3fa9f5;fill-opacity:1;fill-rule:nonzero;stroke:none"
           id="path123244" /><path
           d="m 328.895,412.271 c 0,-0.343 -0.097,-0.662 -0.252,-0.938 0.082,-0.012 0.166,-0.026 0.252,-0.026 1.064,0 1.926,0.865 1.926,1.926 0,1.066 -0.862,1.927 -1.926,1.927 -0.722,0 -1.343,-0.399 -1.674,-0.988 0.942,-0.125 1.674,-0.923 1.674,-1.901"
           style="fill:#3fa9f5;fill-opacity:1;fill-rule:nonzero;stroke:none"
           id="path123246" /><path
           d="m 361.341,382.233 c 0,-1.252 -0.564,-2.362 -1.44,-3.129 1.919,0.376 3.367,2.063 3.367,4.092 0,2.308 -1.87,4.179 -4.177,4.179 -1.052,0 -2.002,-0.404 -2.737,-1.045 0.263,0.052 0.533,0.08 0.81,0.08 2.308,0 4.177,-1.87 4.177,-4.177"
           style="fill:#3fa9f5;fill-opacity:1;fill-rule:nonzero;stroke:none"
           id="path123248" /><path
           d="m 556.648,270.029 -1.024,0.378 c -0.237,0.091 -5.912,2.148 -16.256,2.148 -8.428,0 -17.409,-1.367 -26.692,-4.064 l -1.111,-0.321 -0.017,0.009 1.128,0.321 c 9.283,2.696 18.264,4.06 26.692,4.06 10.344,0 16.019,-2.062 16.256,-2.15 z m -5.104,-1.545 -1.71,2.301 c 1.977,-0.326 3.441,-0.684 4.353,-0.939 z m -5.431,0.081 2.452,1.123 c 0.339,-0.051 0.672,-0.103 0.998,-0.157 l 0.277,-0.37 c -0.73,-0.125 -2.008,-0.338 -3.727,-0.596 m -3.255,2.944 c 2.346,-0.114 4.382,-0.333 6.092,-0.586 l -3.827,-1.75 z m -4.277,0.079 c 1.19,0.01 2.368,-0.004 3.466,-0.045 l -2.734,-2.149 z m -5.836,-0.272 c 1.717,0.139 3.417,0.228 5.093,0.261 -1.46,-1.265 -3.13,-2.627 -3.578,-2.93 -0.314,0.387 -0.982,1.588 -1.515,2.669 m -6.977,-0.845 c 1.955,0.312 3.889,0.56 5.801,0.741 -0.959,-1.061 -1.969,-2.135 -2.364,-2.485 -0.522,0.23 -2.001,0.984 -3.437,1.744 m -5.693,-1.083 c 1.474,0.323 2.938,0.611 4.391,0.864 -0.722,-0.924 -1.515,-1.89 -1.858,-2.239 -0.442,0.207 -1.507,0.791 -2.533,1.375 m 22.915,-1.269 c -4.723,-0.641 -11.203,-1.136 -18.087,-1.469 -2.281,-0.109 -4.608,0.038 -6.93,0.048 l 1.625,1.852 c 2.74,-1.563 2.958,-1.563 3.09,-1.563 0.247,0 0.463,0 2.541,2.676 0.081,-0.043 0.151,-0.078 0.228,-0.119 3.47,-1.83 3.689,-1.835 3.816,-1.835 0.232,0 0.432,0 2.856,2.684 1.395,-2.764 1.781,-2.764 2.044,-2.764 0.179,0 0.542,-0.001 3.786,2.778 l 0.873,-2.618 3.37,2.649 c 0.13,-0.01 0.255,-0.021 0.384,-0.032 l 0.621,-0.641 1.379,-1.423 c -0.506,-0.072 -1.039,-0.146 -1.596,-0.223 m -26.433,-1.57 -2.479,1.342 c 1.583,0.441 3.156,0.843 4.717,1.209 z m -2.882,0.464 0.031,-0.017 1.139,-0.617 c -0.917,0.016 -1.819,-0.003 -2.695,0.039 0.496,0.223 1.013,0.393 1.525,0.595 m -195.419,-40.7 c 0.424,0.641 1.027,1.149 1.744,1.444 13.605,11.261 25.721,21.084 27.79,22.188 3.412,1.819 38.714,8.739 55.43,8.739 1.05,0 1.949,-0.028 2.718,-0.074 l -80.665,-34.881 c -0.24,-1.946 -1.904,-3.436 -3.904,-3.387 -0.819,0.022 -1.57,0.302 -2.183,0.755 l -14.947,-6.464 c 4.58,3.834 9.363,7.823 14.017,11.68 m 270.68,66.316 c -0.597,6.259 -15.961,12.684 -35.551,18.236 -4.618,1.31 -9.47,2.571 -14.42,3.77 -6.804,1.647 -13.785,3.178 -20.595,4.555 -13.051,2.643 -25.456,4.728 -34.689,6.005 -20.613,2.849 -40.533,2.922 -58.106,2.986 -20.441,0.074 -36.587,0.132 -43.222,4.721 -2.112,1.46 -4.324,3.23 -6.665,5.099 -10.335,8.258 -23.199,18.534 -46.407,19.334 l -2.074,0.073 0.083,-2.075 c 0.914,-22.563 -5.536,-41.392 -8.704,-45.082 -0.183,-0.045 -0.406,-0.1 -0.602,-0.144 l -2.57,-0.587 0.009,-0.041 c -22.223,-5.448 -88.494,-22.256 -113.69,-29.191 -5.627,2.886 -20.922,10.556 -24.607,10.556 -0.556,0 -1.041,-0.126 -1.444,-0.379 -1.54,-0.961 -2.092,-3.393 -3.282,-10.101 -0.477,-2.695 -1.253,-7.068 -1.882,-8.382 l -36.508,-9.243 c -10.905,8.368 -22.542,15.349 -34.59,20.856 -2.278,1.042 -4.571,2.042 -6.877,2.978 -5.658,2.289 -11.392,4.234 -17.169,5.865 -4.308,1.217 -8.641,2.248 -12.986,3.085 -9.285,1.793 -18.627,2.742 -27.9,2.742 -6.43,0 -12.851,-0.452 -19.084,-1.341 l -6.042,-0.864 5.443,-2.763 c 11.404,-5.793 31.532,-19.866 48.536,-33.503 7.458,-5.979 14.305,-11.868 19.557,-16.945 3.04,-2.935 5.554,-5.603 7.331,-7.849 -0.601,-1.348 -1.17,-2.634 -1.72,-3.882 -2.881,-6.523 -5.095,-11.683 -6.788,-15.724 -4.13,-9.855 -5.176,-13.085 -5.238,-13.28 l -1.041,-3.27 3.336,0.814 c 4.22,1.031 8.154,2.254 11.846,3.607 4.8,1.757 9.172,3.741 13.126,5.866 5.747,3.088 10.631,6.453 14.741,9.797 10.572,8.602 16.014,17.038 17.777,20.09 l 5.19,-0.446 0.622,-0.147 0.016,0.093 24.273,-2.08 c -1.208,-3.805 -3.864,-11.581 -6.825,-16.578 l -2.057,-3.471 3.992,0.577 c 17.589,2.555 28.055,9.688 30.785,11.76 l 25.097,-3.706 -6.736,-9.626 5.018,1.22 c 11.664,2.925 30.906,7.519 32.787,7.586 2.337,-0.189 6.075,-0.848 10.805,-1.5 9.617,-1.323 24.468,-3.481 42.789,-4.894 -5.152,-4.316 -9.057,-7.605 -10.353,-8.699 l -10.01,-8.438 37.29,16.312 c 5.909,-0.246 12.067,-0.205 18.439,-0.205 h 0.006 c 4.361,0 8.695,-0.097 13.013,0.037 1.387,1.026 3.11,1.526 4.97,1.48 1.48,-0.037 2.856,-0.528 4.03,-1.26 22.351,1.175 44.026,4.079 64.681,8.485 1.398,-1.301 4.872,-4.873 7.984,-11.449 1.051,0.773 2.305,1.254 3.671,1.382 -2.743,6.004 -5.8,9.854 -7.801,11.953 3.427,1.044 7.703,2.276 12.02,3.373 2.44,0.625 4.892,1.202 7.205,1.68 2.31,0.486 4.481,0.872 6.353,1.134 0.933,0.155 1.795,0.228 2.56,0.308 0.764,0.086 1.433,0.149 1.984,0.156 1.105,0.043 1.737,0.068 1.737,0.068 0,0 -0.632,0.035 -1.739,0.097 -0.554,0.048 -1.227,0.048 -2,0.035 -0.774,-0.007 -1.649,0 -2.598,-0.066 -1.903,-0.083 -4.121,-0.261 -6.489,-0.529 -2.369,-0.258 -4.888,-0.601 -7.398,-0.996 -5.024,-0.776 -10.017,-1.734 -13.751,-2.515 -3.728,-0.773 -6.224,-1.366 -6.224,-1.366 l 0.023,-0.076 c -17.161,-3.486 -35.007,-5.884 -53.353,-7.113 l 39.063,32.556 9.726,4.206 -1.882,1.999 c -0.956,1.017 -2.952,2.183 -9.961,2.183 -16.867,0 -52.748,-6.795 -57.242,-9.192 -3.263,-1.741 -24.34,-19.159 -39.374,-31.711 -20.185,1.328 -36.537,3.634 -46.842,5.052 -4.793,0.66 -8.578,1.307 -11.027,1.502 l -0.224,0.008 c -2.169,0 -19.475,-4.213 -28.801,-6.521 l 4.394,6.264 -28.556,4.209 0.034,0.193 c 0,0 -1.337,0.164 -3.343,0.41 -1.011,0.123 -2.187,0.269 -3.449,0.424 -1.264,0.215 -2.609,0.443 -3.957,0.671 -2.704,0.434 -5.392,0.976 -7.415,1.37 -2.02,0.413 -3.365,0.687 -3.365,0.687 0,0 1.277,-0.506 3.194,-1.264 1.924,-0.743 4.49,-1.751 7.096,-2.655 1.3,-0.467 2.602,-0.932 3.822,-1.369 0.011,-0.002 0.023,-0.007 0.032,-0.009 -3.642,-2.397 -11.605,-6.847 -23.462,-9.17 3.376,7.033 5.906,15.753 6.028,16.184 l 0.649,2.254 -32.218,2.761 -5.405,0.628 -23.746,2.759 12.987,-3.079 9.706,-2.303 c -3.283,-5.453 -18.054,-26.982 -51.333,-36.311 1.666,4.328 5.326,13.355 12.812,30.148 l 0.459,1.026 -0.669,0.904 c -1.288,1.742 -3.03,3.741 -5.131,5.929 -14.825,15.42 -47.648,40.24 -66.993,51.476 4.161,0.398 8.382,0.597 12.607,0.597 33.041,0 66.999,-12.01 95.918,-33.81 -2.183,-0.84 -4.566,-1.756 -6.954,-2.676 -2.03,-0.79 -4.038,-1.625 -5.931,-2.385 -1.89,-0.766 -3.655,-1.479 -5.167,-2.091 -3.025,-1.226 -5.042,-2.042 -5.042,-2.042 0,0 2.098,0.589 5.242,1.474 1.571,0.44 3.407,0.956 5.373,1.509 1.967,0.546 4.058,1.156 6.161,1.716 7.165,1.879 14.308,3.75 16.275,4.266 l 28.241,7.15 0.04,-0.159 1.755,0.614 2.174,0.549 0.351,0.312 c 0.012,0.011 0.021,0.023 0.03,0.032 l 14.712,5.145 -13.052,-1.904 c 0.513,1.746 0.982,4.184 1.583,7.581 0.42,2.371 1.025,5.785 1.544,7.206 3.143,-0.734 13.877,-5.727 22.895,-10.38 l 0.669,-0.347 0.728,0.203 c 24.613,6.801 91.997,23.893 114.368,29.376 l -0.987,3.727 0.009,0.19 0.978,-3.47 h 0.003 l 4.474,1.111 55.402,16.41 -52.593,-12.265 c 3.708,7.668 7.918,23.523 7.521,41.955 20.649,-1.279 32.496,-10.753 42.071,-18.406 2.397,-1.914 4.659,-3.728 6.881,-5.263 7.619,-5.27 24.292,-5.332 45.402,-5.411 17.451,-0.063 37.233,-0.135 57.589,-2.95 23.031,-3.185 48.514,-8.389 68.167,-13.92 32.292,-9.089 33.723,-14.598 33.781,-15.193 0.038,-0.407 0.008,-0.83 -0.08,-1.264 -0.002,-0.007 -0.005,-0.014 -0.005,-0.019 -1.305,-6.252 -15.2,-15.164 -24.708,-19.848 -2.796,0.806 -12.922,3.462 -25.057,3.462 -12.243,0 -22.578,-2.692 -30.722,-8.001 l -4.406,-2.875 5.221,-0.653 c 3.661,-0.46 7.815,-0.691 12.351,-0.691 11.384,0 22.925,1.467 29.054,2.387 -2.268,-2.881 -6.04,-6.753 -10.991,-8.576 -2.43,-0.895 -8.287,-2.642 -15.702,-4.852 -17.403,-5.188 -30.741,-9.336 -39.867,-12.688 -0.202,-1.16 -1.218,-2.032 -2.43,-2.003 -0.544,0.015 -1.037,0.214 -1.434,0.529 -5.856,-2.327 -9.357,-4.235 -10.413,-5.818 -0.699,-1.049 -1.483,-2.408 -2.39,-3.983 -4.062,-7.039 -10.7,-18.551 -23.255,-26.314 -0.046,0.24 -0.104,0.456 -0.152,0.692 -1.098,-0.638 -2.365,-1.006 -3.721,-1 0.198,-0.983 0.382,-1.996 0.546,-3.047 l 0.422,-2.715 2.409,1.321 c 8.587,4.704 14.725,10.989 19.254,16.97 -0.27,0.721 -0.417,1.502 -0.396,2.32 0.083,3.288 2.727,5.888 5.973,6 0.827,1.375 1.583,2.675 2.258,3.847 0.874,1.518 1.63,2.826 2.258,3.769 2.339,3.465 32.73,12.661 49.546,17.682 0.865,0.257 1.705,0.508 2.494,0.743 7.48,2.231 13.389,3.992 15.931,4.928 0.982,0.362 1.91,0.801 2.806,1.276 7.965,4.221 12.466,12.239 12.673,12.616 l 1.127,2.05 0.358,0.183 0.002,10e-4 c 1.067,-0.225 2,-0.444 2.801,-0.64 1.891,-0.466 3.004,-0.81 3.039,-0.821 l 0.729,-0.23 0.689,0.333 c 2.939,1.416 28.686,14.158 27.625,25.294"
           style="fill:#2e3192;fill-opacity:1;fill-rule:nonzero;stroke:none"
           id="path123250" /><path
           d="m 320.029,306.633 0.482,0.116 0.363,0.332 c 0.002,0 0.004,0.003 0.004,0.004 l -4.474,-1.334 c 1.385,0.339 2.607,0.636 3.625,0.882"
           style="fill:#2e3192;fill-opacity:1;fill-rule:nonzero;stroke:none"
           id="path123252" /><path
           d="m 401.083,294.598 c 0.137,0.919 0.173,1.46 0.173,1.46 0,0 -0.347,-0.417 -0.882,-1.177 -0.534,-0.76 -1.272,-1.856 -2.058,-3.214 -1.64,-2.674 -3.414,-6.438 -5.015,-10.218 -1.427,-3.429 -2.622,-6.948 -3.369,-9.856 -0.007,-0.023 -0.013,-0.046 -0.02,-0.071 -0.071,-0.285 -0.146,-0.57 -0.209,-0.843 -0.387,-1.519 -0.627,-2.825 -0.779,-3.748 -0.151,-0.922 -0.196,-1.471 -0.196,-1.471 0,0 0.35,0.406 0.893,1.153 0.546,0.744 1.299,1.824 2.105,3.166 0.44,0.703 0.895,1.483 1.356,2.316 0.014,0.025 0.027,0.052 0.041,0.078 1.27,2.305 2.582,5.028 3.747,7.82 1.609,3.837 2.799,7.791 3.492,10.859 0.365,1.524 0.586,2.827 0.721,3.746"
           style="fill:#2e3192;fill-opacity:1;fill-rule:nonzero;stroke:none"
           id="path123254" /><path
           d="m 401.362,269.779 c 0.768,1.225 1.579,2.681 2.387,4.262 0.015,0.027 0.03,0.055 0.044,0.083 0.935,1.831 1.863,3.83 2.714,5.869 1.61,3.837 2.799,7.791 3.492,10.86 0.365,1.523 0.586,2.826 0.721,3.745 0.136,0.919 0.174,1.46 0.174,1.46 0,0 -0.347,-0.417 -0.882,-1.177 -0.535,-0.76 -1.274,-1.855 -2.059,-3.212 -1.64,-2.676 -3.413,-6.439 -5.015,-10.219 -1.134,-2.731 -2.123,-5.516 -2.858,-8.007 -0.007,-0.026 -0.015,-0.053 -0.023,-0.078 -0.278,-0.944 -0.52,-1.848 -0.718,-2.686 -0.386,-1.519 -0.625,-2.825 -0.776,-3.748 -0.153,-0.922 -0.199,-1.471 -0.199,-1.471 0,0 0.352,0.406 0.896,1.153 0.543,0.744 1.298,1.824 2.102,3.166"
           style="fill:#2e3192;fill-opacity:1;fill-rule:nonzero;stroke:none"
           id="path123256" /><path
           d="m 411,269.779 c 1.072,1.713 2.231,3.867 3.351,6.206 0.013,0.029 0.027,0.058 0.041,0.089 0.604,1.267 1.196,2.582 1.753,3.919 1.61,3.837 2.798,7.791 3.491,10.86 0.365,1.523 0.586,2.826 0.72,3.745 0.137,0.919 0.174,1.46 0.174,1.46 0,0 -0.346,-0.417 -0.881,-1.177 -0.536,-0.76 -1.274,-1.855 -2.059,-3.212 -1.64,-2.676 -3.412,-6.439 -5.015,-10.221 -0.856,-2.06 -1.628,-4.152 -2.272,-6.128 -0.01,-0.027 -0.019,-0.055 -0.028,-0.083 -0.529,-1.63 -0.976,-3.183 -1.297,-4.558 -0.388,-1.519 -0.627,-2.825 -0.779,-3.748 -0.15,-0.922 -0.197,-1.471 -0.197,-1.471 0,0 0.352,0.406 0.895,1.153 0.544,0.744 1.297,1.824 2.103,3.166"
           style="fill:#2e3192;fill-opacity:1;fill-rule:nonzero;stroke:none"
           id="path123258" /><path
           d="m 420.638,269.779 c 1.361,2.176 2.862,5.06 4.241,8.135 0.014,0.031 0.027,0.061 0.042,0.093 0.292,0.656 0.583,1.318 0.861,1.986 1.612,3.837 2.8,7.791 3.492,10.86 0.366,1.523 0.586,2.826 0.721,3.745 0.137,0.919 0.174,1.46 0.174,1.46 0,0 -0.347,-0.417 -0.882,-1.177 -0.535,-0.76 -1.273,-1.855 -2.058,-3.212 -1.641,-2.676 -3.414,-6.439 -5.015,-10.221 -0.589,-1.412 -1.137,-2.842 -1.632,-4.237 -0.011,-0.03 -0.022,-0.06 -0.031,-0.088 -0.822,-2.321 -1.49,-4.547 -1.937,-6.444 -0.387,-1.519 -0.626,-2.825 -0.777,-3.748 -0.151,-0.922 -0.198,-1.471 -0.198,-1.471 0,0 0.352,0.406 0.895,1.153 0.545,0.744 1.298,1.824 2.104,3.166"
           style="fill:#2e3192;fill-opacity:1;fill-rule:nonzero;stroke:none"
           id="path123260" /><path
           d="m 519.557,296.058 c 0,1.288 -1.51,2.33 -3.373,2.33 -1.864,0 -3.374,-1.042 -3.374,-2.33 0,-1.285 1.51,-2.328 3.374,-2.328 1.863,0 3.373,1.043 3.373,2.328"
           style="fill:#2e3192;fill-opacity:1;fill-rule:nonzero;stroke:none"
           id="path123262" /></g></g></g></svg>
