<?xml version="1.0" encoding="UTF-8"?>
<svg width="16px" height="16px" viewBox="0 0 16 16" version="1.1" xmlns="http://www.w3.org/2000/svg" xmlns:xlink="http://www.w3.org/1999/xlink">
    <title>LOGO缩小@1x</title>
    <defs>
        <polygon id="path-1" points="0 16 16 16 16 0 0 0"></polygon>
    </defs>
    <g id="页面-1" stroke="none" stroke-width="1" fill="none" fill-rule="evenodd">
        <g id="logo" transform="translate(-0.000000, 0.000020)">
            <g id="g123140-Clipped" transform="translate(8.000000, 8.000000) scale(-1, 1) rotate(-180.000000) translate(-8.000000, -8.000000) translate(0.000000, 0.000000)">
                <mask id="mask-2" fill="white">
                    <use xlink:href="#path-1"></use>
                </mask>
                <g id="path123142"></g>
                <g id="g123140" mask="url(#mask-2)" fill-rule="nonzero">
                    <g transform="translate(0.249653, 3.128933)">
                        <path d="M13.7564533,4.08285071 C13.70104,3.9919815 13.69528,3.9919815 13.6886933,3.9919815 C13.6851733,3.9919815 13.67936,4.00624348 13.6062933,4.05938635 L13.552,3.99496972 L13.5554933,3.99496972 C13.6198933,3.99496972 13.6844267,3.98298286 13.74776,3.98688793 C13.7531733,4.02220332 13.7581067,4.05042167 13.7625333,4.08587289 C13.76048,4.08733305 13.7586133,4.08139055 13.7564533,4.08285071" id="path123146" fill="#29ABE2"></path>
                        <path d="M10.6910133,4.27233722 C10.6912533,4.27452643 10.6914933,4.27671564 10.69176,4.27882667 C10.6343733,4.24794316 10.5764533,4.21666873 10.51816,4.18531611 C10.5177867,4.1831269 10.5173867,4.18093769 10.5169867,4.17882667 C10.5753867,4.2101011 10.6334667,4.24137553 10.6910133,4.27233722" id="path123148" fill="#29ABE2"></path>
                        <path d="M10.96504,4.32348885 C10.96528,4.32593583 10.9655733,4.32821968 10.9658667,4.33066667 C10.9112,4.29991626 10.8562133,4.26900272 10.8008,4.23792605 C10.8004267,4.2353975 10.8000533,4.23303208 10.7997067,4.23066667 C10.8552,4.26174334 10.9102933,4.29273844 10.96504,4.32348885" id="path123150" fill="#29ABE2"></path>
                        <path d="M12.9770133,5.80010667 C12.9770133,5.77176 12.9540267,5.74872 12.9256267,5.74872 C12.8972267,5.74872 12.87424,5.77176 12.87424,5.80010667 C12.87424,5.82856 12.8972267,5.85154667 12.9256267,5.85154667 C12.9540267,5.85154667 12.9770133,5.82856 12.9770133,5.80010667 M12.18048,5.86050667 C12.1520533,5.86050667 12.1290667,5.88352 12.1290667,5.91189333 C12.1290667,5.94032 12.1520533,5.96330667 12.18048,5.96330667 C12.2088533,5.96330667 12.2318667,5.94032 12.2318667,5.91189333 C12.2318667,5.88352 12.2088533,5.86050667 12.18048,5.86050667 M10.1865867,5.90248 C10.1250667,5.90248 10.0752,5.95234667 10.0752,6.01389333 C10.0752,6.07538667 10.1250667,6.12528 10.1865867,6.12528 C10.2481067,6.12528 10.29792,6.07538667 10.29792,6.01389333 C10.29792,5.95234667 10.2481067,5.90248 10.1865867,5.90248 M7.99218667,6.22162667 C7.95664,6.22162667 7.92786667,6.2504 7.92786667,6.28592 C7.92786667,6.32141333 7.95664,6.35024 7.99218667,6.35024 C8.02768,6.35024 8.05648,6.32141333 8.05648,6.28592 C8.05648,6.2504 8.02768,6.22162667 7.99218667,6.22162667 M7.3588,5.14114667 C7.32325333,5.14114667 7.29442667,5.16992 7.29442667,5.20541333 C7.29442667,5.24090667 7.32325333,5.26973333 7.3588,5.26973333 C7.39432,5.26973333 7.42309333,5.24090667 7.42309333,5.20541333 C7.42309333,5.16992 7.39432,5.14114667 7.3588,5.14114667 M6.50186667,5.06664 C6.46632,5.06664 6.43749333,5.09538667 6.43749333,5.13088 C6.43749333,5.1664 6.46632,5.19522667 6.50186667,5.19522667 C6.53738667,5.19522667 6.56616,5.1664 6.56616,5.13088 C6.56616,5.09538667 6.53738667,5.06664 6.50186667,5.06664 M5.5704,5.4764 C5.53485333,5.4764 5.50605333,5.50522667 5.50605333,5.54074667 C5.50605333,5.57626667 5.53485333,5.60506667 5.5704,5.60506667 C5.60592,5.60506667 5.63469333,5.57626667 5.63469333,5.54074667 C5.63469333,5.50522667 5.60592,5.4764 5.5704,5.4764 M5.49589333,4.88034667 C5.46034667,4.88034667 5.43152,4.90909333 5.43152,4.94461333 C5.43152,4.98013333 5.46034667,5.00893333 5.49589333,5.00893333 C5.53141333,5.00893333 5.56018667,4.98013333 5.56018667,4.94461333 C5.56018667,4.90909333 5.53141333,4.88034667 5.49589333,4.88034667 M5.04525333,5.65378667 C5.00269333,5.65378667 4.96813333,5.68832 4.96813333,5.73088 C4.96813333,5.77349333 5.00269333,5.80797333 5.04525333,5.80797333 C5.08778667,5.80797333 5.12232,5.77349333 5.12232,5.73088 C5.12232,5.68832 5.08778667,5.65378667 5.04525333,5.65378667 M5.04525333,4.64781333 C5.00269333,4.64781333 4.96813333,4.68234667 4.96813333,4.72493333 C4.96813333,4.76752 5.00269333,4.802 5.04525333,4.802 C5.08778667,4.802 5.12232,4.76752 5.12232,4.72493333 C5.12232,4.68234667 5.08778667,4.64781333 5.04525333,4.64781333 M4.82525333,5.17842667 C4.78968,5.17842667 4.76090667,5.20714667 4.76090667,5.24266667 C4.76090667,5.27818667 4.78968,5.30701333 4.82525333,5.30701333 C4.86077333,5.30701333 4.88954667,5.27818667 4.88954667,5.24266667 C4.88954667,5.20714667 4.86077333,5.17842667 4.82525333,5.17842667 M4.45264,5.77456 C4.41712,5.77456 4.38829333,5.80328 4.38829333,5.8388 C4.38829333,5.87432 4.41712,5.90314667 4.45264,5.90314667 C4.48816,5.90314667 4.51696,5.87432 4.51696,5.8388 C4.51696,5.80328 4.48816,5.77456 4.45264,5.77456 M3.66669333,4.2752 C3.62413333,4.2752 3.58957333,4.30976 3.58957333,4.35232 C3.58957333,4.39496 3.62413333,4.42941333 3.66669333,4.42941333 C3.70925333,4.42941333 3.74376,4.39496 3.74376,4.35232 C3.74376,4.30976 3.70925333,4.2752 3.66669333,4.2752 M12.5058667,6.66026667 C12.5884,6.41304 12.48528,6.18218667 12.0074667,6.08093333 C10.95376,5.79824 10.4954667,6.41717333 9.68592,6.64853333 C8.97274667,6.85226667 8.09253333,6.86693333 7.3472,6.66130667 C7.1716,6.6228 6.95765333,6.47466667 7.10738667,6.48144 C7.48429333,6.49856 7.70704,6.2116 7.78416,5.98032 C7.80981333,5.85181333 7.80981333,5.6976 7.70701333,5.62050667 C7.32149333,5.2864 6.87818667,5.47488 6.44128,5.62906667 C6.00437333,5.78325333 3.79208,7.05112 3.13242667,5.28728 C3.62072,5.73186667 4.34034667,5.62050667 4.46885333,5.20933333 C4.59733333,4.79805333 4.28896,4.7724 3.87773333,4.6696 C3.46338667,4.55253333 2.92605333,4.51088 2.4016,4.4336 C2.72282667,4.28674667 3.03314667,4.10064 3.32394667,3.87746667 L4.29749333,4.12394667 C4.31426667,4.15896 4.33496,4.27557333 4.34768,4.34744 C4.37941333,4.52632 4.39418667,4.59125333 4.4352,4.6168 C4.44594667,4.62352 4.45888,4.62696 4.47370667,4.62696 C4.57197333,4.62696 4.97984,4.42234667 5.12989333,4.34541333 C5.83712,4.54008 7.75890667,5.02669333 8.24602667,5.14442667 C8.33045333,5.24282667 8.50245333,5.74493333 8.47808,6.34661333 L8.47586667,6.40189333 L8.53117333,6.40008 C9.15010667,6.37866667 9.49309333,6.10464 9.76866667,5.88442667 C9.83112,5.83453333 9.89010667,5.78738667 9.94645333,5.74845333 C10.1234133,5.62608 10.55392,5.62453333 11.0990133,5.62253333 C11.5676267,5.62085333 12.0988267,5.61896 12.6485067,5.54293333 C12.89472,5.50888 13.22552,5.45328 13.5735467,5.3828 C13.3628267,5.84565333 13.0019467,6.27928 12.5058667,6.66026667" id="path123152" fill="#29ABE2"></path>
                        <path d="M13.7758133,4.66288 C13.77576,4.66325333 13.77576,4.66365333 13.77568,4.66392 C12.9313333,4.61346667 12.0675467,4.46504 11.08152,4.28458667 C11.0811733,4.28373333 11.0808267,4.28293333 11.0804533,4.28210667 C12.06768,4.46242667 12.9324,4.61117333 13.7758133,4.66288" id="path123154" fill="#29ABE2"></path>
                        <path d="M10.1485333,4.11354667 C8.41890667,3.80018667 6.28746667,3.45544 3.31805333,3.35810667 L3.31805333,3.35810667 C6.28266667,3.45522667 8.41608,3.79872 10.1480267,4.11165333 C10.1481867,4.11232 10.1483467,4.11293333 10.1485333,4.11354667" id="path123156" fill="#29ABE2"></path>
                        <path d="M2.48048,3.37027 C2.54336,3.37397 2.60653333,3.37737 2.66869333,3.38197 C2.60653333,3.37737 2.54336,3.37397 2.48048,3.37027" id="path123158" fill="#29ABE2"></path>
                        <path d="M3.73906667,2.54528 C3.76741333,2.54458667 3.78984,2.52101333 3.78914667,2.49264 C3.78845333,2.46429333 3.7648,2.44178667 3.73650667,2.44253333 C3.70808,2.44325333 3.68562667,2.46693333 3.68634667,2.4952 C3.68706667,2.5236 3.71066667,2.54602667 3.73906667,2.54528 M4.67685333,2.69306667 C4.73832,2.69157333 4.78693333,2.64045333 4.78541333,2.57896 C4.78384,2.51744 4.73269333,2.46882667 4.67122667,2.47037333 C4.60976,2.47192 4.56112,2.52304 4.56272,2.58456 C4.56424,2.64605333 4.61536,2.69464 4.67685333,2.69306667 M4.89309333,1.77928 C4.89186667,1.72978667 4.85072,1.69069333 4.80122667,1.69192 C4.75178667,1.69317333 4.71266667,1.73429333 4.71394667,1.78378667 C4.71517333,1.83325333 4.75629333,1.87234667 4.80573333,1.87114667 C4.85522667,1.86986667 4.89434667,1.82874667 4.89309333,1.77928 M5.46536,1.67914667 C5.49376,1.6784 5.51616,1.65482667 5.51546667,1.62645333 C5.51474667,1.59813333 5.49112,1.57568 5.4628,1.57634667 C5.4344,1.57709333 5.41194667,1.60066667 5.41266667,1.62904 C5.41341333,1.65744 5.43698667,1.67981333 5.46536,1.67914667 M5.53936,2.23429333 C5.60088,2.23274667 5.64946667,2.18165333 5.64786667,2.12016 C5.64634667,2.05866667 5.59528,2.01008 5.53373333,2.0116 C5.47229333,2.01314667 5.42365333,2.06426667 5.4252,2.12576 C5.42674667,2.18725333 5.47789333,2.23581333 5.53936,2.23429333 M5.79224,1.38810667 C5.82064,1.38738667 5.84304,1.36378667 5.84234667,1.33541333 C5.84165333,1.30709333 5.81802667,1.28464 5.78968,1.28536 C5.76125333,1.28605333 5.73882667,1.30962667 5.73954667,1.33805333 C5.74024,1.36637333 5.76386667,1.38882667 5.79224,1.38810667 M6.18813333,2.13653333 C6.24962667,2.13496 6.29821333,2.08386667 6.29669333,2.0224 C6.29517333,1.96085333 6.244,1.91234667 6.18256,1.91384 C6.12109333,1.91538667 6.07245333,1.96650667 6.07402667,2.028 C6.07554667,2.08946667 6.12664,2.13810667 6.18813333,2.13653333 M6.52256,1.64789333 C6.57205333,1.64664 6.61114667,1.60549333 6.60989333,1.55602667 C6.60866667,1.50656 6.56754667,1.46741333 6.51805333,1.46869333 C6.46858667,1.46992 6.42946667,1.51106667 6.43074667,1.56053333 C6.43197333,1.61 6.47309333,1.64912 6.52256,1.64789333 M6.97144,1.25554667 C6.99986667,1.25482667 7.02226667,1.23125333 7.02154667,1.20288 C7.02085333,1.17448 6.99728,1.15205333 6.96885333,1.15277333 C6.94048,1.15349333 6.91808,1.17706667 6.91874667,1.20546667 C6.91952,1.23381333 6.94312,1.25626667 6.97144,1.25554667 M7.13594667,2.00122667 C7.21402667,1.99930667 7.27565333,1.93442667 7.27370667,1.85637333 C7.27173333,1.77832 7.20685333,1.71669333 7.1288,1.71866667 C7.0508,1.72056 6.98909333,1.78546667 6.99109333,1.86349333 C6.99306667,1.94152 7.05792,2.0032 7.13594667,2.00122667 M7.94848,1.59941333 C8.04778667,1.59690667 8.12626667,1.51434667 8.12376,1.41501333 C8.12128,1.31568 8.03874667,1.2372 7.93944,1.23970667 C7.84008,1.24224 7.76157333,1.32474667 7.76408,1.42405333 C7.76661333,1.52341333 7.84914667,1.60189333 7.94848,1.59941333 M8.53096,2.27024 C8.65392,2.26717333 8.75106667,2.16496 8.748,2.042 C8.74490667,1.91904 8.64272,1.82186667 8.51976,1.82493333 C8.3968,1.82805333 8.29962667,1.93026667 8.30272,2.0532 C8.30581333,2.17618667 8.40794667,2.27333333 8.53096,2.27024 M8.80202667,1.46645333 C8.80098667,1.42386667 8.76562667,1.39024 8.72306667,1.39133333 C8.68048,1.39242667 8.64682667,1.42778667 8.64789333,1.47034667 C8.64898667,1.51290667 8.68432,1.54653333 8.72696,1.54549333 C8.76949333,1.5444 8.80312,1.50909333 8.80202667,1.46645333 M9.5852,1.76810667 C9.67272,1.76589333 9.74186667,1.69317333 9.73968,1.60568 C9.73749333,1.51816 9.66469333,1.44898667 9.5772,1.45122667 C9.48970667,1.45344 9.42056,1.52610667 9.42277333,1.61365333 C9.42496,1.70114667 9.49768,1.77032 9.5852,1.76810667 M10.0354133,2.12090667 C10.0732267,2.11997333 10.1031467,2.08848 10.1021867,2.05064 C10.1012,2.01285333 10.0698133,1.98293333 10.032,1.98386667 C9.99410667,1.98490667 9.96424,2.01626667 9.96522667,2.05410667 C9.96613333,2.09194667 9.99757333,2.12186667 10.0354133,2.12090667 M10.2022933,2.62232 C10.24488,2.62125333 10.27848,2.58586667 10.27744,2.54330667 C10.2763733,2.50074667 10.24096,2.46712 10.1984267,2.46821333 C10.1558133,2.46925333 10.12224,2.50464 10.1232533,2.54717333 C10.12432,2.58973333 10.15976,2.62341333 10.2022933,2.62232 M10.552,1.87656 C10.6465333,1.87413333 10.72136,1.79554667 10.7189333,1.70093333 C10.71656,1.60632 10.6379733,1.5316 10.5433333,1.534 C10.4487467,1.53637333 10.374,1.61496 10.3764,1.70954667 C10.3787467,1.80413333 10.4573867,1.87893333 10.552,1.87656 M10.6308267,2.28586667 C10.6686933,2.28490667 10.6985867,2.25349333 10.6976267,2.21562667 C10.6966667,2.17778667 10.6651733,2.14789333 10.6274133,2.14888 C10.5895733,2.14981333 10.5596267,2.18125333 10.5606133,2.21909333 C10.5616,2.25693333 10.59304,2.28685333 10.6308267,2.28586667 M3.87069333,1.90173333 C4.97088,1.20242667 6.43842667,0.817306667 8.00293333,0.817306667 C9.56738667,0.817306667 11.0348533,1.20242667 12.1350933,1.90173333 C12.8312533,2.34424 13.3232,2.87714667 13.5813333,3.45496 C13.1329067,3.32106667 12.32248,3.07584 12.2601067,2.98344 C12.24336,2.95829333 12.2232,2.92341333 12.1998933,2.88296 C12.1818933,2.85168 12.16168,2.81701333 12.13968,2.78034667 C12.14296,2.78042667 12.14608,2.78114667 12.14936,2.78106667 C12.24048,2.77877333 12.3123733,2.70309333 12.31008,2.612 C12.3078133,2.52098667 12.2321333,2.44901333 12.1410933,2.45138667 C12.07184,2.45306667 12.0138667,2.49733333 11.9909333,2.55848 C11.8701867,2.39898667 11.7065067,2.23138667 11.47752,2.10594667 L11.41328,2.07072 L11.4020267,2.14312 C11.3976533,2.17114667 11.3927467,2.19816 11.3874667,2.22437333 C11.38608,2.2244 11.3847733,2.22402667 11.38336,2.22405333 C11.2746133,2.2268 11.1886667,2.31722667 11.1914133,2.42602667 C11.1929867,2.48938667 11.22488,2.5444 11.27232,2.57928 C11.1893333,2.75461333 11.0966933,2.84954667 11.0594133,2.88424 C10.5086133,2.7668 9.93061333,2.68869333 9.33458667,2.65736 C9.39688,2.61861333 9.43776,2.54896 9.43576,2.47029333 C9.43282667,2.35202667 9.33450667,2.25856 9.21629333,2.26154667 C9.09805333,2.26453333 9.00464,2.3628 9.0076,2.48104 C9.00933333,2.54970667 9.04336,2.61482667 9.09458667,2.65274667 C8.97946667,2.64917333 8.86386667,2.65176 8.74754667,2.65176 L8.74736,2.65176 C8.57749333,2.65176 8.41330667,2.65066667 8.25570667,2.65722667 L7.26136,2.22474667 L7.52826667,2.44853333 C7.5628,2.47768 7.66693333,2.56474667 7.80437333,2.67981333 C7.31578667,2.71752 6.91978667,2.77477333 6.66328,2.81005333 C6.53712,2.82744 6.43746667,2.84488 6.37509333,2.84989333 C6.32490667,2.84808 5.81181333,2.72554667 5.50077333,2.64752 L5.36706667,2.61493333 L5.54664,2.87162667 L4.87733333,2.97045333 C4.80453333,2.91517333 4.52546667,2.72496 4.05645333,2.65688 L3.95,2.64144 L4.00485333,2.734 C4.08381333,2.86725333 4.15464,3.07461333 4.18685333,3.17608 L3.53957333,3.23154667 L3.53914667,3.22906667 L3.52256,3.23298667 L3.38416,3.24488 C3.33714667,3.16349333 3.19202667,2.93853333 2.91016,2.70914667 C3.16501333,2.41765333 3.48658667,2.14589333 3.87069333,1.90173333" id="path123160" fill="#29ABE2"></path>
                        <path d="M13.40768,3.99077667 C13.4402014,3.98637667 13.4735805,3.98327667 13.50768,3.98107667 L13.4610591,4.05457667 C13.443186,4.03367667 13.4250728,4.01357667 13.40768,3.99077667" id="path123162" fill="#29ABE2"></path>
                        <path d="M10.4185333,4.22114698 C10.4186933,4.22300158 10.4189067,4.22500455 10.4191467,4.22693333 C10.3578133,4.1956277 10.2959733,4.16432206 10.2336267,4.1326455 C10.2332533,4.1307909 10.2328533,4.12878793 10.23248,4.12693333 C10.29504,4.15846152 10.3569867,4.18984135 10.4185333,4.22114698" id="path123164" fill="#29ABE2"></path>
                        <path d="M2.9704,3.39195 C2.89170667,3.38445 2.812,3.37795 2.73213333,3.37165 C2.812,3.37795 2.89170667,3.38445 2.9704,3.39195" id="path123166" fill="#29ABE2"></path>
                        <path d="M3.09817333,3.38712 L3.09817333,3.38712 C3.07027333,3.38632 3.04297333,3.38552 3.01537333,3.38472 C3.04297333,3.38552 3.07027333,3.38632 3.09817333,3.38712" id="path123168" fill="#29ABE2"></path>
                        <path d="M3.61968,7.31413333 C4.794,8.06053333 6.35064,8.47157333 8.00288,8.47157333 C9.6552,8.47157333 11.2117867,8.06053333 12.3861067,7.31413333 C13.2766667,6.74805333 13.8716533,6.03834667 14.1227467,5.26128 C14.2547467,5.22936 14.3841333,5.19573333 14.50728,5.1608 C14.2627733,6.03488 13.6210133,6.83458667 12.6398933,7.46722667 C11.3976,8.26837333 9.75082667,8.70954667 8.00288,8.70954667 C6.25498667,8.70954667 4.60821333,8.26837333 3.36586667,7.46722667 C2.23354667,6.73709333 1.55312,5.78442667 1.41402667,4.75168 C1.52992,4.72936 1.64541333,4.70192 1.76034667,4.66944 C1.85589333,5.67594667 2.50733333,6.60712 3.61968,7.31413333" id="path123170" fill="#3FA9F5"></path>
                        <path d="M2.11058667,3.03421333 C2.05421333,3.13696 2.00442667,3.24128 1.96096,3.34704 C1.82090667,3.48242667 1.63832,3.63946667 1.43944,3.79890667 C1.51773333,3.38696 1.68330667,2.98930667 1.92962667,2.61490667 C1.97472,2.72266667 2.03381333,2.86026667 2.11058667,3.03421333" id="path123172" fill="#3FA9F5"></path>
                        <path d="M14.52504,4.03618667 L14.5154933,4.03130667 L14.4854933,3.97664 C14.47992,3.96658667 14.3598933,3.75277333 14.1474933,3.64021333 C13.9123467,2.83168 13.3073867,2.09237333 12.3861067,1.50677333 C11.2117867,0.760426667 9.65514667,0.34936 8.00293333,0.34936 C6.35069333,0.34936 4.794,0.760426667 3.61968,1.50677333 C3.17706667,1.78813333 2.80773333,2.10496 2.51698667,2.44789333 C2.41152,2.39122667 2.29493333,2.33832 2.16698667,2.29146667 C2.47917333,1.90837333 2.88109333,1.55493333 3.36592,1.24226667 C4.60816,0.441173333 6.25498667,0 8.00293333,0 C9.75088,0 11.3976,0.441173333 12.6398933,1.24226667 C13.7946133,1.98690667 14.47984,2.9628 14.5997867,4.01914667 C14.5784267,4.02437333 14.5535467,4.03016 14.52504,4.03618667" id="path123174" fill="#3FA9F5"></path>
                        <path d="M14.23008,4.02090667 C14.2649797,4.02558467 14.2983757,4.03008042 14.33008,4.03445466 L14.2436765,4.12090667 C14.2392905,4.08755308 14.2349046,4.05413874 14.23008,4.02090667" id="path123176" fill="#3FA9F5"></path>
                        <path d="M14.3954133,4.52180931 C14.4123733,4.52111482 14.4576267,4.56592198 14.5098133,4.62180931 C14.4549067,4.56570578 14.4086667,4.52133102 14.3954133,4.52180931" id="path123178" fill="#3FA9F5"></path>
                        <path d="M14.4326341,4.52181333 C14.345318,4.52243182 14.4140891,4.57243182 14.4812182,4.62181333 C14.4049132,4.57252948 14.3269661,4.52262714 14.4326341,4.52181333" id="path123180" fill="#3FA9F5"></path>
                        <path d="M14.40544,4.72102162 C14.34648,4.72192162 14.3032,4.72012162 14.2286933,4.71702162 L14.2286933,4.71582162 C14.3032,4.71942162 14.34648,4.72152162 14.40544,4.72102162" id="path123182" fill="#3FA9F5"></path>
                        <path d="M14.3791502,4.1328 L14.31336,4.0328 C14.3594829,4.05577418 14.3937732,4.07474123 14.41336,4.08587213 L14.4059277,4.11881959 C14.3971539,4.12362814 14.388246,4.12825859 14.3791502,4.1328" id="path123184" fill="#3FA9F5"></path>
                        <path d="M1.21189333,4.57613333 C1.14261333,4.58954667 1.07717333,4.60333333 1.01613333,4.61224 C0.95536,4.62277333 0.899253333,4.62978667 0.84952,4.63618667 C0.799786667,4.64226667 0.756266667,4.64661333 0.7204,4.64973333 C0.64864,4.65586667 0.60744,4.65674667 0.60744,4.65674667 C0.60744,4.65674667 0.64864,4.65746667 0.720693333,4.65410667 C0.75672,4.6524 0.800426667,4.64981333 0.850506667,4.64570667 C0.900533333,4.6412 0.95712,4.63634667 1.01842667,4.62813333 C1.07994667,4.62154667 1.14610667,4.6104 1.21624,4.59954667 C1.28618667,4.58744 1.35976,4.57349333 1.43549333,4.55728 C1.51082667,4.53925333 1.58949333,4.52336 1.66754667,4.50013333 C1.7068,4.48925333 1.74642667,4.47829333 1.78610667,4.46728 C1.82533333,4.45458667 1.86472,4.44173333 1.90408,4.42898667 C1.98338667,4.40482667 2.06050667,4.3744 2.13674667,4.3452 C2.21381333,4.31789333 2.28605333,4.2824 2.35752,4.25149333 C2.4296,4.22162667 2.49517333,4.18450667 2.55909333,4.15242667 C2.59066667,4.13581333 2.622,4.12050667 2.65136,4.10418667 C2.68032,4.08696 2.70816,4.07032 2.73504,4.05434667 C2.78834667,4.02186667 2.83858667,3.99405333 2.88072,3.96586667 C2.92256,3.93701333 2.95906667,3.91184 2.98904,3.89112 C3.0492,3.8496 3.08349333,3.82589333 3.08349333,3.82589333 L3.02066667,3.74453333 C3.02066667,3.74453333 2.98813333,3.76890667 2.93122667,3.81152 C2.90274667,3.83288 2.86818667,3.85882667 2.82850667,3.88853333 C2.78837333,3.91773333 2.7404,3.94664 2.68954667,3.98045333 C2.66394667,3.99714667 2.63722667,4.01450667 2.60962667,4.03248 C2.58146667,4.0496 2.55144,4.06573333 2.52106667,4.08317333 C2.45976,4.11704 2.39664,4.15616 2.32709333,4.18818667 C2.25802667,4.22125333 2.18824,4.25904 2.11338667,4.28882667 C2.03941333,4.32056 1.96442667,4.35365333 1.88704,4.38050667 C1.84861333,4.39466667 1.81018667,4.40882667 1.77189333,4.42298667 C1.73298667,4.43536 1.69429333,4.44773333 1.65586667,4.46 C1.57933333,4.48605333 1.50208,4.5048 1.42802667,4.52568 C1.35344,4.54466667 1.28090667,4.56133333 1.21189333,4.57613333 M4.50741333,4.43186667 C4.62224,4.38434667 4.73656,4.33578667 4.85013333,4.28565333 C4.95997333,4.23792 5.06904,4.18861333 5.17821333,4.13944 C5.30693333,4.17624 5.43597333,4.2116 5.56485333,4.24752 L5.96338667,4.35432 L6.36293333,4.45741333 L6.76328,4.55704 C6.89666667,4.59050667 7.03072,4.62114667 7.16448,4.65330667 C7.29816,4.68538667 7.43256,4.71496 7.56658667,4.74586667 C7.83530667,4.80509333 8.10424,4.86330667 8.37525333,4.91376 C8.11290667,4.82925333 7.84864,4.75250667 7.58402667,4.67688 C7.45138667,4.64034667 7.3192,4.60237333 7.18629333,4.56698667 C7.05333333,4.53168 6.92082667,4.49490667 6.78754667,4.46088 L6.388,4.35810667 L5.9876,4.25882667 L5.58621333,4.16325333 C5.45208,4.13274667 5.31808,4.10154667 5.18373333,4.072 L5.1708,4.06914667 L5.16096,4.0744 C5.05138667,4.13266667 4.94170667,4.19072 4.83285333,4.25042667 C4.72368,4.30949333 4.61530667,4.37024 4.50741333,4.43186667 M8.9064,4.26856 C8.95517333,4.26856 8.99469333,4.24482667 8.99469333,4.21557333 C8.99469333,4.18629333 8.95517333,4.16256 8.9064,4.16256 C8.85754667,4.16256 8.818,4.18629333 8.818,4.21557333 C8.818,4.24482667 8.85754667,4.26856 8.9064,4.26856 M9.57453333,4.62834667 C9.62336,4.62834667 9.66288,4.60464 9.66288,4.57536 C9.66288,4.54605333 9.62336,4.5224 9.57453333,4.5224 C9.52576,4.5224 9.48618667,4.54605333 9.48618667,4.57536 C9.48618667,4.60464 9.52576,4.62834667 9.57453333,4.62834667 M9.8572,4.29424 C9.90608,4.29424 9.94554667,4.27050667 9.94554667,4.24125333 C9.94554667,4.212 9.90608,4.18826667 9.8572,4.18826667 C9.80848,4.18826667 9.76890667,4.212 9.76890667,4.24125333 C9.76890667,4.27050667 9.80848,4.29424 9.8572,4.29424 M8.18672,4.12562667 C8.15122667,4.12562667 8.12248,4.14796415 8.12248,4.17559209 C8.12248,4.20318545 8.15122667,4.22562667 8.18672,4.22562667 C8.22218667,4.22562667 8.25098667,4.20318545 8.25098667,4.17559209 C8.25098667,4.14796415 8.22218667,4.12562667 8.18672,4.12562667 M7.82696,3.84290667 C7.79149333,3.84290667 7.76272,3.86528647 7.76272,3.89292396 C7.76272,3.92052687 7.79149333,3.94290667 7.82696,3.94290667 C7.86242667,3.94290667 7.89117333,3.92052687 7.89117333,3.89292396 C7.89117333,3.86528647 7.86242667,3.84290667 7.82696,3.84290667 M7.21016,3.89429333 C7.17464,3.89429333 7.14592,3.91669997 7.14592,3.94429333 C7.14592,3.97188669 7.17464,3.99429333 7.21016,3.99429333 C7.24565333,3.99429333 7.27442667,3.97188669 7.27442667,3.94429333 C7.27442667,3.91669997 7.24565333,3.89429333 7.21016,3.89429333 M6.67042667,3.7144 C6.63498667,3.7144 6.60624,3.73681439 6.60624,3.7644173 C6.60624,3.79205479 6.63498667,3.8144 6.67042667,3.8144 C6.70592,3.8144 6.73469333,3.79205479 6.73469333,3.7644173 C6.73469333,3.73681439 6.70592,3.7144 6.67042667,3.7144 M5.1028,3.53450667 C5.06728,3.53450667 5.03850667,3.55687873 5.03850667,3.58447209 C5.03850667,3.61210003 5.06728,3.63450667 5.1028,3.63450667 C5.13826667,3.63450667 5.16701333,3.61210003 5.16701333,3.58447209 C5.16701333,3.55687873 5.13826667,3.53450667 5.1028,3.53450667 M11.6048267,4.75685333 C11.6536533,4.75685333 11.6931467,4.73309333 11.6931467,4.70386667 C11.6931467,4.67464 11.6536533,4.65082667 11.6048267,4.65082667 C11.5560267,4.65082667 11.5164533,4.67464 11.5164533,4.70386667 C11.5164533,4.73309333 11.5560267,4.75685333 11.6048267,4.75685333 M12.3501067,4.71392 C12.3856,4.71392 12.4143733,4.69153246 12.4143733,4.6639546 C12.4143733,4.63634215 12.3856,4.61392 12.3501067,4.61392 C12.31464,4.61392 12.2858667,4.63634215 12.2858667,4.6639546 C12.2858667,4.69153246 12.31464,4.71392 12.3501067,4.71392 M13.5152533,4.82810667 C13.5649333,4.82810667 13.6052,4.80029333 13.6052,4.76594667 C13.6052,4.73168 13.5649333,4.70386667 13.5152533,4.70386667 C13.4655467,4.70386667 13.42528,4.73168 13.42528,4.76594667 C13.42528,4.80029333 13.4655467,4.82810667 13.5152533,4.82810667 M2.42453333,3.33696 C2.44328,3.33722667 2.46178667,3.3376 2.48048,3.33789333 C2.54336,3.33888 2.60653333,3.33978667 2.66869333,3.34101333 C2.69005333,3.34144 2.71088,3.342 2.73213333,3.34242667 C2.812,3.34410667 2.89170667,3.34586667 2.9704,3.34784 C2.98338667,3.34816 2.99610667,3.34858667 3.00906667,3.34893333 C3.01648,3.34914667 3.02370667,3.34936 3.03114667,3.34957333 L2.68482667,3.43168 L3.31805333,3.35810667 C6.28746667,3.45544 8.41890667,3.80018667 10.1485333,4.11354667 C10.1684533,4.19109333 10.20032,4.28493333 10.2383733,4.3764 C10.2810667,4.47717333 10.3284,4.57754667 10.3721067,4.64890667 C10.3930667,4.68506667 10.4127467,4.71429333 10.4269867,4.73456 C10.4412533,4.75482667 10.4505067,4.76594667 10.4505067,4.76594667 C10.4505067,4.76594667 10.4495467,4.75152 10.4458933,4.72701333 C10.44224,4.70250667 10.4363733,4.66776 10.4266667,4.62714667 C10.4081867,4.54530667 10.37648,4.43986667 10.3335467,4.33754667 C10.3024533,4.26309333 10.2674933,4.19048 10.2336267,4.12901333 C10.2959733,4.14037333 10.3578133,4.15162667 10.4191467,4.16288 C10.43872,4.22930667 10.46512,4.30357333 10.49536,4.3764 C10.53808,4.47717333 10.58536,4.57754667 10.6290933,4.64890667 C10.6500267,4.68506667 10.6697333,4.71429333 10.684,4.73456 C10.6982667,4.75482667 10.70752,4.76594667 10.70752,4.76594667 C10.70752,4.76594667 10.7064533,4.75152 10.70288,4.72701333 C10.69928,4.70250667 10.6933867,4.66776 10.6836533,4.62714667 C10.6651733,4.54530667 10.6334667,4.43986667 10.5905333,4.33754667 C10.56784,4.28317333 10.5430933,4.22986667 10.51816,4.18104 C10.5764533,4.19173333 10.63432,4.2024 10.69176,4.21293333 C10.7089333,4.26562667 10.72952,4.32141333 10.7523467,4.37634667 C10.79504,4.47717333 10.8423467,4.57754667 10.88608,4.64890667 C10.9070133,4.68506667 10.9266933,4.71429333 10.9409333,4.73456 C10.9552533,4.75482667 10.96448,4.76594667 10.96448,4.76594667 C10.96448,4.76594667 10.9634933,4.75152 10.95984,4.72701333 C10.9562667,4.70250667 10.9503733,4.66776 10.94064,4.62714667 C10.92216,4.54530667 10.89048,4.43986667 10.8475467,4.33754667 C10.8326933,4.30194667 10.8169067,4.26682667 10.8008,4.23304 C10.8562133,4.2432 10.9112,4.25330667 10.9658667,4.26336 C10.9790667,4.30056 10.99368,4.33869333 11.0093867,4.37634667 C11.05208,4.47717333 11.09936,4.57754667 11.14312,4.64890667 C11.1640533,4.68506667 11.1837333,4.71429333 11.198,4.73456 C11.2122667,4.75482667 11.22152,4.76594667 11.22152,4.76594667 C11.22152,4.76594667 11.2205333,4.75152 11.21688,4.72701333 C11.21328,4.70250667 11.2074133,4.66776 11.1976533,4.62714667 C11.1792,4.54530667 11.14752,4.43986667 11.1045333,4.33754667 C11.09712,4.31973333 11.08936,4.30208 11.0815733,4.28458667 C12.0675467,4.46504 12.9313333,4.61346667 13.77568,4.66392 C13.9323733,4.67330667 14.0883733,4.67930667 14.24432,4.68146667 C14.3032533,4.68234667 14.3621867,4.68277333 14.42112,4.68248 C14.4497333,4.68242667 14.4295467,4.64336 14.4088267,4.60373333 C14.3902933,4.56328 14.3713067,4.52232 14.3954133,4.52181333 C14.4086133,4.52157333 14.4549067,4.54346667 14.5098133,4.57114667 C14.5892533,4.61314667 14.68448,4.66757333 14.72112,4.67522667 C14.7329867,4.67992 14.742,4.68272 14.7466667,4.68256 C14.7932267,4.68101333 14.8372533,4.67882667 14.8803733,4.67632 C14.8386933,4.69792 14.794,4.71506667 14.7509067,4.73477333 C14.7034933,4.75693333 14.6535467,4.77418667 14.60416,4.79258667 C14.50616,4.83144 14.4040533,4.86061333 14.3029067,4.89242667 C14.2526667,4.90930667 14.2006667,4.92098667 14.1493067,4.93466667 L13.9948267,4.97466667 C13.89144,4.99986667 13.78648,5.01962667 13.6823733,5.04256 L13.6040533,5.05882667 L13.5250933,5.07224 L13.3670933,5.09906667 L13.2089867,5.12592 L13.0500267,5.14706667 L12.7317867,5.18888 L12.4120267,5.21997333 C12.30536,5.23 12.19888,5.24213333 12.09184,5.24770667 L11.7709333,5.26874667 L11.61048,5.27928 L11.44976,5.2856 L11.1282133,5.29738667 C11.0209867,5.30114667 10.9138133,5.30642667 10.8065067,5.30626667 L10.16264,5.31282667 L10.15528,5.31290667 L10.15,5.31728 L9.98224,5.45589333 C9.92666667,5.50269333 9.86968,5.54744 9.81264,5.59226667 L9.72717333,5.6596 C9.69904,5.68248 9.66922667,5.70312 9.64016,5.72477333 L9.55245333,5.78909333 C9.52352,5.81101333 9.49365333,5.83144 9.46314667,5.85096 L9.37237333,5.91077333 C9.34261333,5.93154667 9.31106667,5.94925333 9.27949333,5.96701333 L9.18504,6.0208 C9.15352,6.03874667 9.11981333,6.05229333 9.08730667,6.06829333 C9.05421333,6.08288 9.0224,6.10077333 8.98818667,6.1128 L8.88610667,6.1504 C8.8524,6.16413333 8.81730667,6.17325333 8.78224,6.18272 L8.67717333,6.2116 L8.78288,6.18504 C8.81818667,6.17637333 8.8536,6.16802667 8.8876,6.15501333 L8.99088,6.11962667 C9.02546667,6.10826667 9.05770667,6.09109333 9.09136,6.07712 C9.12432,6.06184 9.15858667,6.04888 9.19061333,6.03165333 L9.28672,5.97976 C9.31885333,5.96264 9.35101333,5.94546667 9.38136,5.92528 L9.47386667,5.86717333 C9.50501333,5.84826667 9.53549333,5.8284 9.56498667,5.80704 L9.65445333,5.74450667 C9.68416,5.72341333 9.71456,5.70338667 9.74325333,5.68104 L9.83042667,5.61538667 C9.88869333,5.57181333 9.94685333,5.52810667 10.00352,5.48256 L10.16904,5.35184 L10.8069333,5.35962667 C10.9144267,5.36224 11.0219467,5.35933333 11.12944,5.35792 L11.4520267,5.35336 L11.61336,5.35058667 L11.7745333,5.34368 L12.09712,5.32970667 C12.2047467,5.32650667 12.3120267,5.31672 12.4194133,5.30904 L12.7416267,5.28496 L13.06312,5.25002667 L13.22392,5.23226667 L13.3841067,5.20877333 L13.5442933,5.18517333 L13.62448,5.17338667 L13.7042133,5.15866667 C13.8103467,5.13792 13.91704,5.12021333 14.0228267,5.09690667 L14.18112,5.05970667 C14.2338667,5.04688 14.2870133,5.03616 14.33904,5.01997333 C14.44352,4.98970667 14.54872,4.96208 14.65152,4.92413333 C14.70312,4.90618667 14.7551467,4.88944 14.80568,4.86730667 C14.8563733,4.84554667 14.9081067,4.82762667 14.9576533,4.80181333 L15.0326667,4.76541333 C15.0576,4.75309333 15.0818133,4.73797333 15.1064,4.72432 C15.1310133,4.71106667 15.1552267,4.69512 15.1792,4.67866667 C15.1912267,4.67050667 15.2030133,4.66309333 15.2162933,4.65210667 C15.21896,4.64994667 15.2217067,4.64778667 15.22448,4.64552 C15.2650933,4.64101333 15.30728,4.63610667 15.3508533,4.63112 C15.3532,4.64266667 15.354,4.65386667 15.3529867,4.66474667 C15.35144,4.68064 15.31328,4.82752 14.45216,5.06986667 C13.92808,5.21736 13.2485333,5.35618667 12.6343733,5.44106667 C12.0915467,5.51613333 11.5640267,5.51808 11.0986667,5.51976 C10.5357333,5.52181333 10.09112,5.52341333 9.88794667,5.66386667 C9.82869333,5.70488 9.76837333,5.75309333 9.70445333,5.80413333 C9.44912,6.00821333 9.1332,6.26053333 8.58256,6.29461333 C8.59314667,5.80290667 8.48082667,5.37933333 8.38184,5.17493333 L9.78448,5.50056 L8.30714667,5.06 C8.30709333,5.05994667 8.30704,5.05989333 8.30698667,5.05989333 L8.29730667,5.05104 L8.28442667,5.05392 C8.25730667,5.04736 8.22474667,5.03629333 8.18778667,5.03629333 L8.18770667,5.03629333 C7.59112,5.03629333 5.79424,4.42834667 5.13789333,4.24698667 L5.11850667,4.23858667 L5.10064,4.24629333 C4.86013333,4.3704 4.57392,4.50285333 4.49005333,4.5224 C4.47624,4.48445333 4.46016,4.39306667 4.44890667,4.32992 C4.43290667,4.23928 4.4204,4.17408 4.40672,4.12752 L4.75477333,4.17821333 L4.36250667,4.04096 C4.36221333,4.04069333 4.36197333,4.04037333 4.36165333,4.04013333 L4.35229333,4.03173333 L4.29432,4.01709333 L4.24752,4.00072 L4.24645333,4.00496 L3.49333333,3.81429333 C3.44096,3.80053333 3.2504,3.75064 3.05936,3.70053333 C3.00328,3.6856 2.94752,3.66933333 2.89506667,3.65477333 C2.84264,3.64002667 2.79368,3.62626667 2.75178667,3.61453333 C2.66794667,3.59093333 2.61205333,3.57522667 2.61205333,3.57522667 C2.61205333,3.57522667 2.66578667,3.59698667 2.74645333,3.62968 C2.78677333,3.646 2.83384,3.66501333 2.88421333,3.68544 C2.93472,3.70570667 2.98826667,3.728 3.04234667,3.74904 C3.10608,3.77357333 3.16962667,3.798 3.22784,3.8204 C2.45666667,4.40173333 1.55112,4.722 0.670026667,4.722 C0.55736,4.722 0.4448,4.71661333 0.333866667,4.70608 C0.84968,4.40645333 1.72498667,3.74458667 2.12026667,3.33338667 C2.20112,3.33410667 2.28192,3.33482667 2.36157333,3.33592 C2.38274667,3.33621333 2.40346667,3.33664 2.42453333,3.33696" id="path123186" fill="#0071BC"></path>
                        <path d="M8.22,2.85224 C8.22050667,2.87218667 8.22693333,2.89053333 8.23722667,2.90608 C8.11309333,2.80322667 7.98552,2.69685333 7.86344,2.59461333 L8.26192,2.76698667 C8.23586667,2.78618667 8.21912,2.81736 8.22,2.85224" id="path123188" fill="#0071BC"></path>
                        <path d="M8.68546667,2.9694577 C8.64293333,2.97063064 8.60928,3.00856512 8.61037333,3.05425244 C8.61141333,3.09991114 8.6468,3.1360147 8.68936,3.13484176 C8.73194667,3.13372604 8.76557333,3.09576295 8.76448,3.05010424 C8.76338667,3.00441693 8.72805333,2.96831337 8.68546667,2.9694577 M8.28368,2.95240721 C8.29650667,2.95807163 8.31058667,2.96118993 8.32536,2.96081802 C8.38213333,2.95930178 8.42696,2.90863664 8.42552,2.84778698 C8.42544,2.84409652 8.42469333,2.84072075 8.42429333,2.83717333 L10.57536,3.83505633 C10.5548533,3.8363723 10.53088,3.83717333 10.50288,3.83717333 C10.0571733,3.83717333 9.11568,3.63920452 9.0248,3.58716618 C8.96957333,3.55558272 8.64648,3.27456426 8.28368,2.95240721" id="path123190" fill="#0071BC"></path>
                        <path d="M3.00392,4.98197333 C2.97088,4.98197333 2.94090667,4.97021333 2.9168,4.9512 C2.92829333,4.95418667 2.94016,4.95632 2.95256,4.95632 C3.03061333,4.95632 3.09392,4.89301333 3.09392,4.81496 C3.09392,4.76994667 3.07245333,4.73029333 3.03965333,4.70442667 C3.10034667,4.72032 3.14530667,4.77496 3.14530667,4.84061333 C3.14530667,4.91872 3.082,4.98197333 3.00392,4.98197333" id="path123192" fill="#3FA9F5"></path>
                        <path d="M3.38484751,5.21570667 C3.36480309,5.21570667 3.34753491,5.20501333 3.33837333,5.18933333 C3.364581,5.18597333 3.38484751,5.16469333 3.38484751,5.13861333 C3.38484751,5.12952 3.38215457,5.12104 3.37776811,5.11357333 C3.38010015,5.11328 3.38245995,5.11293333 3.38484751,5.11293333 C3.41444218,5.11293333 3.43837333,5.13592 3.43837333,5.16434667 C3.43837333,5.19272 3.41444218,5.21570667 3.38484751,5.21570667" id="path123194" fill="#3FA9F5"></path>
                        <path d="M2.43399333,4.95872 C2.41393778,4.95872 2.39666,4.94797333 2.38749333,4.93234667 C2.41371556,4.92898667 2.43399333,4.90770667 2.43399333,4.88165333 C2.43399333,4.87248 2.43129889,4.86405333 2.42696556,4.85661333 C2.42924333,4.85629333 2.43160444,4.85594667 2.43399333,4.85594667 C2.46360444,4.85594667 2.48749333,4.87888 2.48749333,4.90730667 C2.48749333,4.93568 2.46360444,4.95872 2.43399333,4.95872" id="path123196" fill="#3FA9F5"></path>
                        <path d="M2.84546667,5.42130667 C2.84546667,5.51002667 2.77354667,5.58192 2.68482667,5.58192 C2.64845333,5.58192 2.61533333,5.56941333 2.58848,5.54909333 C2.60282667,5.55328 2.61768,5.55621333 2.63344,5.55621333 C2.72216,5.55621333 2.79410667,5.48434667 2.79410667,5.39562667 C2.79410667,5.34328 2.76864,5.2972 2.72986667,5.26789333 C2.79653333,5.28746667 2.84546667,5.34832 2.84546667,5.42130667" id="path123198" fill="#3FA9F5"></path>
                        <path d="M3.06496,5.69653333 C3.06496,5.68194667 3.05994667,5.66968 3.05181333,5.66968 L3.05208,5.66968 C3.0876,5.66968 3.11637333,5.68666667 3.11637333,5.72218667 C3.11637333,5.75773333 3.0876,5.78058667 3.05208,5.78058667 C3.03109333,5.78058667 3.01264,5.77338667 3.00093333,5.75784 C3.03632,5.75776 3.06496,5.73197333 3.06496,5.69653333" id="path123200" fill="#3FA9F5"></path>
                        <path d="M4.14437333,5.10288 C4.14437333,5.08832 4.13933333,5.07357333 4.1312,5.07357333 L4.13149333,5.07357333 C4.16701333,5.07357333 4.19578667,5.09304 4.19578667,5.12856 C4.19578667,5.16416 4.16701333,5.18829333 4.13149333,5.18829333 C4.11050667,5.18829333 4.09202667,5.18045333 4.08034667,5.16488 C4.11570667,5.16474667 4.14437333,5.13832 4.14437333,5.10288" id="path123202" fill="#3FA9F5"></path>
                        <path d="M6.46485333,6.53712 C6.46485333,6.46368 6.42789333,6.39898667 6.3716,6.36042667 C6.45573333,6.38930667 6.51626667,6.46890667 6.51626667,6.56277333 C6.51626667,6.68104 6.4204,6.77696 6.30210667,6.77696 C6.25722667,6.77696 6.21562667,6.76312 6.1812,6.73954667 C6.20304,6.74701333 6.22632,6.75125333 6.25072,6.75125333 C6.36898667,6.75125333 6.46485333,6.65541333 6.46485333,6.53712" id="path123204" fill="#3FA9F5"></path>
                        <path d="M6.85034667,6.09162667 C6.82733333,6.09162667 6.80688,6.08136 6.79277333,6.06536 C6.79485333,6.06549333 6.79685333,6.066 6.79898667,6.066 C6.84149333,6.066 6.87608,6.03141333 6.87608,5.98885333 C6.87608,5.96933333 6.86856,5.95168 6.85658667,5.93805333 C6.89616,5.94128 6.92746667,5.97408 6.92746667,6.01456 C6.92746667,6.05712 6.89296,6.09162667 6.85034667,6.09162667" id="path123206" fill="#3FA9F5"></path>
                        <path d="M7.26154667,6.18586667 C7.26154667,6.15605333 7.24864,6.12936 7.22832,6.11058667 C7.2764,6.11922667 7.31293333,6.16104 7.31293333,6.2116 C7.31293333,6.26837333 7.26693333,6.3144 7.21016,6.3144 C7.18325333,6.3144 7.15893333,6.30381333 7.14061333,6.28682667 C7.14656,6.28792 7.15253333,6.28874667 7.1588,6.28874667 C7.21554667,6.28874667 7.26154667,6.24266667 7.26154667,6.18586667" id="path123208" fill="#3FA9F5"></path>
                        <path d="M6.93605333,7.11968 C7.01173333,7.11968 7.07312,7.05829333 7.07312,6.98258667 C7.07312,6.9392 7.05256,6.90101333 7.02112,6.87589333 C7.0804,6.89090667 7.12450667,6.94429333 7.12450667,7.00829333 C7.12450667,7.08397333 7.06309333,7.14533333 6.98741333,7.14533333 C6.95517333,7.14533333 6.92581333,7.13370667 6.9024,7.11498667 C6.9132,7.11773333 6.92434667,7.11968 6.93605333,7.11968" id="path123210" fill="#3FA9F5"></path>
                        <path d="M5.3512,6.44290667 C5.3512,6.42336 5.34370667,6.40568 5.33173333,6.39216 C5.37133333,6.39533333 5.40256,6.42818667 5.40256,6.46856 C5.40256,6.51114667 5.36805333,6.54568 5.32549333,6.54568 C5.30248,6.54568 5.28205333,6.53536 5.26792,6.51941333 C5.26997333,6.51957333 5.27202667,6.52 5.27413333,6.52 C5.31669333,6.52 5.3512,6.48552 5.3512,6.44290667" id="path123212" fill="#3FA9F5"></path>
                        <path d="M4.28037333,6.53712 C4.28037333,6.47088 4.24744,6.41261333 4.19736,6.37690667 C4.27528,6.40312 4.33173333,6.47597333 4.33173333,6.56277333 C4.33173333,6.6716 4.24354667,6.75986667 4.13472,6.75986667 C4.09213333,6.75986667 4.05298667,6.74602667 4.02074667,6.72304 C4.04050667,6.72968 4.06133333,6.73413333 4.08330667,6.73413333 C4.19213333,6.73413333 4.28037333,6.64592 4.28037333,6.53712" id="path123214" fill="#3FA9F5"></path>
                        <path d="M4.90578667,6.75986667 C4.90578667,6.74362667 4.89986667,6.72896 4.89048,6.7172 C4.92744,6.71824 4.95712,6.74834667 4.95712,6.78554667 C4.95712,6.82341333 4.92645333,6.85408 4.88858667,6.85408 C4.86698667,6.85408 4.84789333,6.84384 4.83536,6.82821333 C4.83597333,6.82821333 4.83658667,6.8284 4.83722667,6.8284 C4.87506667,6.8284 4.90578667,6.79768 4.90578667,6.75986667" id="path123216" fill="#3FA9F5"></path>
                        <path d="M5.49682667,6.93976 C5.49682667,6.92352 5.49096,6.90885333 5.48154667,6.89712 C5.51856,6.89810667 5.54821333,6.92826667 5.54821333,6.96544 C5.54821333,7.00330667 5.51754667,7.03397333 5.47970667,7.03397333 C5.45805333,7.03397333 5.43901333,7.02376 5.42642667,7.00810667 C5.42709333,7.00810667 5.42765333,7.00829333 5.42832,7.00829333 C5.46616,7.00829333 5.49682667,6.97765333 5.49682667,6.93976" id="path123218" fill="#3FA9F5"></path>
                        <path d="M3.49653333,6.32298667 C3.49653333,6.26898667 3.47018667,6.22144 3.43008,6.19144 C3.49810667,6.21176 3.54792,6.27410667 3.54792,6.34861333 C3.54792,6.43973333 3.47408,6.51357333 3.38301333,6.51357333 C3.34592,6.51357333 3.31208,6.50085333 3.28453333,6.48029333 C3.29954667,6.48474667 3.31512,6.48789333 3.3316,6.48789333 C3.42272,6.48789333 3.49653333,6.41405333 3.49653333,6.32298667" id="path123220" fill="#3FA9F5"></path>
                        <path d="M6.028,7.39381333 C6.028,7.34221333 6.00298667,7.29690667 5.96485333,7.26792 C6.03085333,7.28714667 6.07936,7.34733333 6.07936,7.41941333 C6.07936,7.50701333 6.00845333,7.57792 5.92088,7.57792 C5.88488,7.57792 5.85205333,7.56549333 5.82544,7.54525333 C5.83954667,7.54941333 5.85410667,7.55226667 5.86949333,7.55226667 C5.95706667,7.55226667 6.028,7.48138667 6.028,7.39381333" id="path123222" fill="#3FA9F5"></path>
                        <path d="M8.4652,7.20530667 C8.4652,7.16032 8.44376,7.12072 8.41096,7.0948 C8.47162667,7.11066667 8.51656,7.16541333 8.51656,7.23098667 C8.51656,7.30909333 8.45330667,7.37234667 8.37528,7.37234667 C8.34218667,7.37234667 8.31216,7.36053333 8.28808,7.34154667 C8.29957333,7.34456 8.31141333,7.34666667 8.32381333,7.34666667 C8.40189333,7.34666667 8.4652,7.28341333 8.4652,7.20530667" id="path123224" fill="#3FA9F5"></path>
                        <path d="M7.68136,7.62506667 C7.68136,7.56533333 7.65189333,7.51288 7.60712,7.48013333 C7.67976,7.50328 7.73274667,7.57048 7.73274667,7.65077333 C7.73274667,7.75010667 7.65216,7.83074667 7.55282667,7.83074667 C7.51314667,7.83074667 7.47685333,7.81744 7.44712,7.79573333 C7.46434667,7.80125333 7.4824,7.80496 7.50138667,7.80496 C7.6008,7.80496 7.68136,7.72445333 7.68136,7.62506667" id="path123226" fill="#3FA9F5"></path>
                        <path d="M6.79893333,7.55653333 C6.79893333,7.53704 6.79144,7.51936 6.77946667,7.50584 C6.81912,7.50901333 6.85032,7.54176 6.85032,7.58224 C6.85032,7.62482667 6.81584,7.65936 6.77325333,7.65936 C6.75021333,7.65936 6.72978667,7.64901333 6.71565333,7.63301333 C6.71773333,7.63322667 6.71978667,7.6336 6.72186667,7.6336 C6.76445333,7.6336 6.79893333,7.5992 6.79893333,7.55653333" id="path123228" fill="#3FA9F5"></path>
                        <path d="M5.07706667,7.27386667 C5.07706667,7.21741333 5.04941333,7.16778667 5.00736,7.13658667 C5.07728,7.15813333 5.12845333,7.22253333 5.12845333,7.29952 C5.12845333,7.38882667 5.05997333,7.46128 4.9728,7.46933333 C4.96754667,7.46978667 4.96245333,7.47088 4.95712,7.47088 C4.91893333,7.47088 4.884,7.45792 4.85554667,7.43682667 C4.87149333,7.44178667 4.88813333,7.4452 4.90573333,7.4452 C5.00034667,7.4452 5.07706667,7.36850667 5.07706667,7.27386667" id="path123230" fill="#3FA9F5"></path>
                        <path d="M9.01773333,7.52232 C9.01773333,7.49789333 9.00789333,7.47581333 8.99208,7.4596 C9.03557333,7.46581333 9.06909333,7.50285333 9.06909333,7.54794667 C9.06909333,7.59752 9.02901333,7.6376 8.97952,7.6376 C8.95442667,7.6376 8.93181333,7.6272 8.91552,7.61064 C8.91968,7.61125333 8.92378667,7.61192 8.92810667,7.61192 C8.9776,7.61192 9.01773333,7.57178667 9.01773333,7.52232" id="path123232" fill="#3FA9F5"></path>
                        <path d="M10.7396267,7.34237333 C10.7396267,7.318 10.7297867,7.29589333 10.7139467,7.27970667 C10.7574933,7.28584 10.7910133,7.32293333 10.7910133,7.36808 C10.7910133,7.41762667 10.7509067,7.45773333 10.70136,7.45773333 C10.67632,7.45773333 10.65368,7.44730667 10.63744,7.43072 C10.6415733,7.43138667 10.6457067,7.43194667 10.65,7.43194667 C10.6994933,7.43194667 10.7396267,7.39189333 10.7396267,7.34237333" id="path123234" fill="#3FA9F5"></path>
                        <path d="M10.0371467,6.98258667 C10.0371467,6.9492 10.02208,6.91949333 9.99877333,6.89912 C10.0499733,6.90909333 10.0885867,6.95416 10.0885867,7.00829333 C10.0885867,7.06981333 10.03872,7.11968 9.97717333,7.11968 C9.94912,7.11968 9.92378667,7.10890667 9.90421333,7.09181333 C9.91117333,7.09322667 9.91837333,7.09397333 9.92578667,7.09397333 C9.98730667,7.09397333 10.0371467,7.04408 10.0371467,6.98258667" id="path123236" fill="#3FA9F5"></path>
                        <path d="M10.7996,6.65706667 C10.8610667,6.65706667 10.9109333,6.60722667 10.9109333,6.54568 C10.9109333,6.51224 10.89592,6.48261333 10.8726133,6.46221333 C10.9237867,6.47226667 10.9623467,6.51728 10.9623467,6.57136 C10.9623467,6.63296 10.91248,6.68277333 10.85096,6.68277333 C10.8229067,6.68277333 10.7975733,6.67202667 10.7779733,6.65485333 C10.78496,6.65632 10.79216,6.65706667 10.7996,6.65706667" id="path123238" fill="#3FA9F5"></path>
                        <path d="M10.0389798,7.47944 C10.0389798,7.47032 10.0363146,7.46186667 10.0319559,7.45445333 C10.0342602,7.45416 10.0365922,7.45378667 10.0389798,7.45378667 C10.0685467,7.45378667 10.0925333,7.47677333 10.0925333,7.50517333 C10.0925333,7.53354667 10.0685467,7.55653333 10.0389798,7.55653333 C10.0189353,7.55653333 10.0016949,7.54586667 9.99253333,7.53010667 C10.0187132,7.52685333 10.0389798,7.50552 10.0389798,7.47944" id="path123240" fill="#3FA9F5"></path>
                        <path d="M11.7865927,6.65706667 C11.7865927,6.64792 11.7838712,6.63949333 11.7795391,6.63205333 C11.7818995,6.63170667 11.7842044,6.63144 11.7865927,6.63144 C11.8161678,6.63144 11.8401333,6.65442667 11.8401333,6.68272 C11.8401333,6.71112 11.8161678,6.73416 11.7865927,6.73416 C11.7665427,6.73416 11.7492975,6.72341333 11.7401333,6.70776 C11.7663205,6.7044 11.7865927,6.68314667 11.7865927,6.65706667" id="path123242" fill="#3FA9F5"></path>
                        <path d="M9.70491375,7.76216 C9.70491375,7.75301333 9.70224783,7.74458667 9.69786016,7.73712 C9.70022061,7.7368 9.70252553,7.73650667 9.70491375,7.73650667 C9.73448887,7.73650667 9.75842667,7.75946667 9.75842667,7.78781333 C9.75842667,7.81624 9.73448887,7.83925333 9.70491375,7.83925333 C9.684836,7.83925333 9.66759079,7.82856 9.65842667,7.81282667 C9.68464161,7.80946667 9.70491375,7.78824 9.70491375,7.76216" id="path123244" fill="#3FA9F5"></path>
                        <path d="M8.52274,7.86496 C8.52274,7.85581333 8.52004556,7.84730667 8.51574,7.83994667 C8.51801778,7.83962667 8.52035111,7.83925333 8.52274,7.83925333 C8.55229556,7.83925333 8.57624,7.86232 8.57624,7.89061333 C8.57624,7.91904 8.55229556,7.942 8.52274,7.942 C8.50268444,7.942 8.48543444,7.93136 8.47624,7.91565333 C8.50240667,7.91232 8.52274,7.89104 8.52274,7.86496" id="path123246" fill="#3FA9F5"></path>
                        <path d="M9.38610667,7.06394667 C9.38610667,7.03056 9.37106667,7.00096 9.34770667,6.98050667 C9.39888,6.99053333 9.43749333,7.03552 9.43749333,7.08962667 C9.43749333,7.15117333 9.38762667,7.20106667 9.32610667,7.20106667 C9.29805333,7.20106667 9.27272,7.19029333 9.25312,7.1732 C9.26013333,7.17458667 9.26733333,7.17533333 9.27472,7.17533333 C9.33626667,7.17533333 9.38610667,7.12546667 9.38610667,7.06394667" id="path123248" fill="#3FA9F5"></path>
                        <path d="M14.5942933,4.07184 L14.5669867,4.08192 C14.5606667,4.08434667 14.4093333,4.1392 14.1334933,4.1392 C13.9087467,4.1392 13.6692533,4.10274667 13.4217067,4.03082667 L13.39208,4.02226667 L13.3916267,4.02250667 L13.4217067,4.03106667 C13.6692533,4.10296 13.9087467,4.13933333 14.1334933,4.13933333 C14.4093333,4.13933333 14.5606667,4.08434667 14.5669867,4.082 L14.5942933,4.07184 Z M14.4581867,4.03064 L14.4125867,4.13064 C14.4653067,4.11647225 14.5043467,4.10091379 14.5286667,4.08983166 L14.4581867,4.03064 Z M14.31336,4.0328 L14.3791502,4.1328 C14.388246,4.12825859 14.3971808,4.12362814 14.4059277,4.11881959 L14.41336,4.08587213 C14.3937732,4.07474123 14.3594829,4.05577418 14.31336,4.0328 M14.22656,4.14901333 C14.28912,4.1441332 14.3434133,4.1347582 14.3890133,4.12392772 L14.28696,4.04901333 L14.22656,4.14901333 Z M14.1125067,4.15476564 C14.1468402,4.15522079 14.1808275,4.15458359 14.2125067,4.15271749 L14.1336261,4.05490667 L14.1125067,4.15476564 Z M13.95688,4.12607882 C14.0026667,4.13082284 14.048,4.13386039 14.0926933,4.13498667 C14.05376,4.09181261 14.0092267,4.04532796 13.99728,4.03498667 C13.9889067,4.04819486 13.9710933,4.08918462 13.95688,4.12607882 M13.7708267,4.10730109 C13.82296,4.11985642 13.8745333,4.1298363 13.92552,4.13712 C13.8999467,4.09442382 13.8730133,4.05120451 13.86248,4.03712 C13.84856,4.04637553 13.80912,4.07671759 13.7708267,4.10730109 M13.6190133,4.07949134 C13.65832,4.09391743 13.69736,4.10678031 13.7361067,4.11808 C13.7168533,4.07681158 13.6957067,4.03366732 13.68656,4.01808 C13.6747733,4.0273252 13.6463733,4.05340827 13.6190133,4.07949134 M14.23008,4.02090667 C14.1041333,4.00381333 13.9313333,3.99061333 13.74776,3.98173333 C13.6869333,3.97882667 13.62488,3.98274667 13.56296,3.98301333 L13.6062933,4.0324 C13.67936,3.99072 13.6851733,3.99072 13.6886933,3.99072 C13.69528,3.99072 13.70104,3.99072 13.7564533,4.06208 C13.7586133,4.06093333 13.76048,4.06 13.7625333,4.05890667 C13.8550667,4.01010667 13.8609067,4.00997333 13.8642933,4.00997333 C13.87048,4.00997333 13.8758133,4.00997333 13.9404533,4.08154667 C13.9776533,4.00784 13.9879467,4.00784 13.99496,4.00784 C13.9997333,4.00784 14.0094133,4.00781333 14.09592,4.08192 L14.1192,4.01210667 L14.2090667,4.08274667 C14.2125333,4.08248 14.2158667,4.08218667 14.2193067,4.08189333 L14.2358667,4.0648 L14.27264,4.02685333 C14.2591467,4.02493333 14.2449333,4.02296 14.23008,4.02090667 M13.5252,3.97904 L13.4590933,4.03164682 C13.5013067,4.04893416 13.5432533,4.06469269 13.58488,4.07904 L13.5252,3.97904 Z M13.4642663,4.05132667 L13.4654165,4.04962667 L13.50768,3.98792667 C13.473654,3.98952667 13.4401846,3.98762667 13.40768,3.99182667 C13.4260845,4.01412667 13.4452681,4.03112667 13.4642663,4.05132667 M8.23717333,2.90608 C8.24848,2.92317333 8.26456,2.93672 8.28368,2.94458667 C8.64648,3.24488 8.96957333,3.50682667 9.02474667,3.53626667 C9.11573333,3.58477333 10.05712,3.76930667 10.50288,3.76930667 C10.53088,3.76930667 10.5548533,3.76856 10.57536,3.76733333 L8.42429333,2.83717333 C8.41789333,2.78528 8.37352,2.74554667 8.32018667,2.74685333 C8.29834667,2.74744 8.27832,2.75490667 8.26197333,2.76698667 L7.86338667,2.59461333 C7.98552,2.69685333 8.11306667,2.80322667 8.23717333,2.90608 M15.4553067,4.67450667 C15.4393867,4.84141333 15.02968,5.01274667 14.50728,5.1608 C14.3841333,5.19573333 14.2547467,5.22936 14.1227467,5.26133333 C13.9413067,5.30525333 13.7551467,5.34608 13.5735467,5.3828 C13.22552,5.45328 12.89472,5.50888 12.6485067,5.54293333 C12.0988267,5.61890667 11.5676267,5.62085333 11.0990133,5.62256 C10.55392,5.62453333 10.12336,5.62608 9.94642667,5.74845333 C9.89010667,5.78738667 9.83112,5.83458667 9.76869333,5.88442667 C9.49309333,6.10464 9.15005333,6.37866667 8.53117333,6.4 L8.47586667,6.40194667 L8.47808,6.34661333 C8.50245333,5.74493333 8.33045333,5.24282667 8.24597333,5.14442667 C8.24109333,5.14322667 8.23514667,5.14176 8.22992,5.14058667 L8.16138667,5.12493333 L8.16162667,5.12384 C7.56901333,4.97856 5.80178667,4.53034667 5.12989333,4.34541333 C4.97984,4.42237333 4.57197333,4.62690667 4.47370667,4.62690667 C4.45888,4.62690667 4.44594667,4.62354667 4.4352,4.6168 C4.39413333,4.59117333 4.37941333,4.52632 4.34768,4.34744 C4.33496,4.27557333 4.31426667,4.15896 4.29749333,4.12392 L3.32394667,3.87744 C3.03314667,4.10058667 2.72282667,4.28674667 2.40154667,4.4336 C2.3408,4.46138667 2.27965333,4.48805333 2.21816,4.51301333 C2.06728,4.57405333 1.91437333,4.62592 1.76032,4.66941333 C1.64544,4.70186667 1.52989333,4.72936 1.41402667,4.75168 C1.16642667,4.79949333 0.917306667,4.8248 0.670026667,4.8248 C0.49856,4.8248 0.327333333,4.81274667 0.16112,4.78904 L7.10542736e-16,4.766 L0.145146667,4.69232 C0.449253333,4.53784 0.986,4.16256 1.43944,3.79890667 C1.63832,3.63946667 1.82090667,3.48242667 1.96096,3.34704 C2.04202667,3.26877333 2.10906667,3.19762667 2.15645333,3.13773333 C2.14042667,3.10178667 2.12525333,3.06749333 2.11058667,3.03421333 C2.03376,2.86026667 1.97472,2.72266667 1.92957333,2.61490667 C1.81944,2.35210667 1.79154667,2.26597333 1.78989333,2.26077333 L1.76213333,2.17357333 L1.85109333,2.19528 C1.96362667,2.22277333 2.06853333,2.25538667 2.16698667,2.29146667 C2.29498667,2.33832 2.41157333,2.39122667 2.51701333,2.44789333 C2.67026667,2.53024 2.80050667,2.61997333 2.91010667,2.70914667 C3.19202667,2.93853333 3.33714667,3.16349333 3.38416,3.24488 L3.52256,3.23298667 L3.53914667,3.22906667 L3.53957333,3.23154667 L4.18685333,3.17608 C4.15464,3.07461333 4.08381333,2.86725333 4.00485333,2.734 L3.95,2.64144 L4.05645333,2.65682667 C4.52549333,2.72496 4.80458667,2.91517333 4.87738667,2.97042667 L5.54664,2.8716 L5.36701333,2.61490667 L5.50082667,2.64744 C5.81186667,2.72544 6.32498667,2.84794667 6.37514667,2.84973333 C6.43746667,2.84469333 6.53714667,2.82712 6.66328,2.80973333 C6.91973333,2.77445333 7.31576,2.71690667 7.80432,2.67922667 C7.66693333,2.56413333 7.5628,2.47642667 7.52824,2.44725333 L7.26130667,2.22224 L8.25570667,2.65722667 C8.41328,2.65066667 8.57749333,2.65176 8.74741333,2.65176 L8.74757333,2.65176 C8.86386667,2.65176 8.97944,2.64917333 9.09458667,2.65274667 C9.13157333,2.68010667 9.17752,2.69344 9.22712,2.69221333 C9.26658667,2.69122667 9.30328,2.67813333 9.33458667,2.65861333 C9.93061333,2.68994667 10.5086133,2.76738667 11.0594133,2.88488 C11.0966933,2.85018667 11.1893333,2.75493333 11.27232,2.57957333 C11.3003467,2.60018667 11.3337867,2.61301333 11.3702133,2.61642667 C11.2970667,2.77653333 11.2155467,2.8792 11.1621867,2.93517333 C11.2535733,2.96301333 11.3676,2.99586667 11.48272,3.02512 C11.5477867,3.04178667 11.6131733,3.05717333 11.6748533,3.06992 C11.7364533,3.08288 11.7943467,3.09317333 11.8442667,3.10016 C11.8691467,3.10429333 11.8921333,3.10624 11.9125333,3.10837333 C11.9329067,3.11066667 11.9507467,3.11234667 11.96544,3.11253333 C11.9949067,3.11368 12.01176,3.11434667 12.01176,3.11434667 C12.01176,3.11434667 11.9949067,3.11528 11.9653867,3.11693333 C11.9506133,3.11821333 11.9326667,3.11821333 11.9120533,3.11786667 C11.8914133,3.11768 11.86808,3.11786667 11.8427733,3.11610667 C11.7920267,3.11389333 11.73288,3.10914667 11.6697333,3.102 C11.60656,3.09512 11.5393867,3.08597333 11.4724533,3.07544 C11.33848,3.05474667 11.2053333,3.0292 11.10576,3.00837333 C11.0063467,2.98776 10.9397867,2.97194667 10.9397867,2.97194667 L10.9404,2.96992 C10.4827733,2.87696 10.00688,2.81301333 9.51765333,2.78024 L10.5593333,3.6484 L10.8186933,3.76056 L10.7685067,3.81386667 C10.7430133,3.84098667 10.6897867,3.87208 10.50288,3.87208 C10.0530933,3.87208 9.09626667,3.69088 8.97642667,3.62696 C8.88941333,3.58053333 8.32736,3.11605333 7.92645333,2.78133333 C7.38818667,2.81674667 6.95213333,2.87824 6.67733333,2.91605333 C6.54952,2.93365333 6.44858667,2.95090667 6.38328,2.95610667 L6.37730667,2.95632 C6.31946667,2.95632 5.85797333,2.84397333 5.60928,2.78242667 L5.72645333,2.94946667 L4.96496,3.06170667 L4.96586667,3.06685333 C4.96586667,3.06685333 4.93021333,3.07122667 4.87672,3.07778667 C4.84976,3.08106667 4.8184,3.08496 4.78474667,3.08909333 C4.75104,3.09482667 4.71517333,3.10090667 4.67922667,3.10698667 C4.60712,3.11856 4.53544,3.13301333 4.48149333,3.14352 C4.42762667,3.15453333 4.39176,3.16184 4.39176,3.16184 C4.39176,3.16184 4.42581333,3.14834667 4.47693333,3.12813333 C4.52824,3.10832 4.59666667,3.08144 4.66616,3.05733333 C4.70082667,3.04488 4.73554667,3.03248 4.76808,3.02082667 C4.76837333,3.02077333 4.76869333,3.02064 4.76893333,3.02058667 C4.67181333,2.95666667 4.45946667,2.838 4.14328,2.77605333 C4.23330667,2.9636 4.30077333,3.19613333 4.30402667,3.20762667 L4.32133333,3.26773333 L3.46218667,3.34136 L3.31805333,3.35810667 L2.68482667,3.43168 L3.03114667,3.34957333 L3.28997333,3.28816 C3.20242667,3.14274667 2.80853333,2.56864 1.92109333,2.31986667 C1.96552,2.43528 2.06312,2.676 2.26274667,3.12381333 L2.27498667,3.15117333 L2.25714667,3.17528 C2.2228,3.22173333 2.17634667,3.27504 2.12032,3.33338667 C1.72498667,3.74458667 0.849706667,4.40645333 0.33384,4.70608 C0.4448,4.71669333 0.55736,4.722 0.670026667,4.722 C1.55112,4.722 2.45666667,4.40173333 3.22784,3.8204 C3.16962667,3.798 3.10608,3.77357333 3.0424,3.74904 C2.98826667,3.72797333 2.93472,3.70570667 2.88424,3.68544 C2.83384,3.66501333 2.78677333,3.646 2.74645333,3.62968 C2.66578667,3.59698667 2.612,3.57522667 2.612,3.57522667 C2.612,3.57522667 2.66794667,3.59093333 2.75178667,3.61453333 C2.79368,3.62626667 2.84264,3.64002667 2.89506667,3.65477333 C2.94752,3.66933333 3.00328,3.6856 3.05936,3.70053333 C3.25042667,3.75064 3.44090667,3.80053333 3.49336,3.81429333 L4.24645333,4.00496 L4.24752,4.00072 L4.29432,4.01709333 L4.35229333,4.03173333 L4.36165333,4.04005333 C4.36197333,4.04034667 4.36221333,4.04066667 4.36245333,4.04090667 L4.75477333,4.17810667 L4.40672,4.12733333 C4.4204,4.17389333 4.43290667,4.23890667 4.44893333,4.32949333 C4.46013333,4.39272 4.47626667,4.48376 4.49010667,4.52165333 C4.57392,4.50208 4.86016,4.36893333 5.10064,4.24485333 L5.11848,4.2356 L5.13789333,4.24101333 C5.79424,4.42237333 7.59114667,4.87816 8.18770667,5.02437333 L8.16138667,5.12376 L8.16162667,5.12882667 L8.18770667,5.03629333 L8.18778667,5.03629333 L8.30709333,5.06592 L9.78448,5.50352 L8.382,5.17645333 C8.48088,5.38093333 8.59314667,5.80373333 8.58256,6.29525333 C9.1332,6.26114667 9.44912,6.00850667 9.70445333,5.80442667 C9.76837333,5.75338667 9.82869333,5.70501333 9.88794667,5.66408 C10.09112,5.52354667 10.5357333,5.52189333 11.0986667,5.51978667 C11.5640267,5.51810667 12.0915467,5.51618667 12.6343733,5.44112 C13.2485333,5.35618667 13.92808,5.21741333 14.45216,5.06992 C15.31328,4.82754667 15.35144,4.68064 15.3529867,4.66477333 C15.354,4.65392 15.3532,4.64264 15.3508533,4.63106667 C15.3508,4.63088 15.35072,4.63069333 15.35072,4.63056 C15.31592,4.46384 14.9453867,4.22618667 14.69184,4.10128 C14.61728,4.12277333 14.3472533,4.1936 14.0236533,4.1936 C13.6971733,4.1936 13.4215733,4.12181333 13.2044,3.98024 L13.0869067,3.90357333 L13.2261333,3.88616 C13.32376,3.87389333 13.4345333,3.86773333 13.5554933,3.86773333 C13.8590667,3.86773333 14.1668267,3.90685333 14.3302667,3.93138667 C14.2697867,3.85456 14.1692,3.75130667 14.0371733,3.70269333 C13.9723733,3.67882667 13.8161867,3.63224 13.6184533,3.57330667 C13.1543733,3.43496 12.7986933,3.32434667 12.5553333,3.23496 C12.5499467,3.20402667 12.5228533,3.18077333 12.4905333,3.18154667 C12.4760267,3.18194667 12.46288,3.18725333 12.4522933,3.19565333 C12.2961333,3.1336 12.2027733,3.08272 12.1746133,3.04050667 C12.1559733,3.01253333 12.1350667,2.97629333 12.11088,2.93429333 C12.00256,2.74658667 11.8255467,2.4396 11.4907467,2.23258667 C11.48952,2.23898667 11.4879733,2.24474667 11.4866933,2.25104 C11.4574133,2.23402667 11.4236267,2.22421333 11.3874667,2.22437333 C11.3927467,2.19816 11.3976533,2.17114667 11.4020267,2.14312 L11.41328,2.07072 L11.47752,2.10594667 C11.7065067,2.23138667 11.8701867,2.39898667 11.99096,2.55848 C11.98376,2.57770667 11.97984,2.59853333 11.9804,2.62034667 C11.9826133,2.70802667 12.05312,2.77736 12.13968,2.78034667 C12.1617333,2.81701333 12.1818933,2.85168 12.1998933,2.88293333 C12.2232,2.92341333 12.24336,2.95829333 12.2601067,2.98344 C12.32248,3.07584 13.1329067,3.32106667 13.5813333,3.45496 C13.6044,3.46181333 13.6268,3.46850667 13.64784,3.47477333 C13.8473067,3.53426667 14.00488,3.58122667 14.0726667,3.60618667 C14.0988533,3.61584 14.1236,3.62754667 14.1474933,3.64021333 C14.3598933,3.75277333 14.47992,3.96658667 14.48544,3.97664 L14.5154933,4.03130667 L14.52504,4.03618667 L14.5250933,4.03621333 C14.5535467,4.03021333 14.5784267,4.02437333 14.5997867,4.01914667 C14.6502133,4.00672 14.6798933,3.99754667 14.6808267,3.99725333 L14.7002667,3.99112 L14.71864,4 C14.7970133,4.03776 15.4836,4.37754667 15.4553067,4.67450667" id="path123250" fill="#2E3192"></path>
                        <path d="M8.28445333,5.09054361 L8.29730667,5.09923926 L8.30698667,5.12412682 C8.30704,5.12412682 8.30709333,5.1243517 8.30709333,5.12442667 L8.18778667,5.02442667 C8.22472,5.04983896 8.25730667,5.07210283 8.28445333,5.09054361" id="path123252" fill="#2E3192"></path>
                        <path d="M10.4458933,4.72701333 C10.4495467,4.75152 10.4505067,4.76594667 10.4505067,4.76594667 C10.4505067,4.76594667 10.4412533,4.75482667 10.4269867,4.73456 C10.4127467,4.71429333 10.3930667,4.68506667 10.3721067,4.64885333 C10.3283733,4.57754667 10.2810667,4.47717333 10.2383733,4.37637333 C10.20032,4.28493333 10.1684533,4.19109333 10.1485333,4.11354667 C10.1483467,4.11293333 10.1481867,4.11232 10.148,4.11165333 C10.1461067,4.10405333 10.1441067,4.09645333 10.1424267,4.08917333 C10.1321067,4.04866667 10.1257067,4.01384 10.1216533,3.98922667 C10.1176267,3.96464 10.1164267,3.95 10.1164267,3.95 C10.1164267,3.95 10.12576,3.96082667 10.14024,3.98074667 C10.1548,4.00058667 10.17488,4.02938667 10.1963733,4.06517333 C10.2081067,4.08392 10.22024,4.10472 10.2325333,4.12693333 C10.2329067,4.1276 10.2332533,4.12832 10.2336267,4.12901333 C10.2674933,4.19048 10.30248,4.26309333 10.3335467,4.33754667 C10.3764533,4.43986667 10.4081867,4.54530667 10.4266667,4.62712 C10.4364,4.66776 10.4422933,4.70250667 10.4458933,4.72701333" id="path123254" fill="#2E3192"></path>
                        <path d="M10.4533333,4.06517333 C10.4738133,4.09784 10.49544,4.13666667 10.5169867,4.17882667 C10.5173867,4.17954667 10.5177867,4.18029333 10.51816,4.18104 C10.5430933,4.22986667 10.56784,4.28317333 10.5905333,4.33754667 C10.6334667,4.43986667 10.6651733,4.54530667 10.6836533,4.62714667 C10.6933867,4.66776 10.69928,4.70250667 10.70288,4.72701333 C10.7065067,4.75152 10.70752,4.76594667 10.70752,4.76594667 C10.70752,4.76594667 10.6982667,4.75482667 10.684,4.73456 C10.6697333,4.71429333 10.6500267,4.68509333 10.6290933,4.64890667 C10.58536,4.57754667 10.53808,4.4772 10.49536,4.3764 C10.46512,4.30357333 10.4387467,4.22930667 10.4191467,4.16288 C10.41896,4.16218667 10.4187467,4.16146667 10.4185333,4.1608 C10.41112,4.13562667 10.4046667,4.11152 10.3993867,4.08917333 C10.3890933,4.04866667 10.38272,4.01384 10.3786933,3.98922667 C10.3746133,3.96464 10.3733867,3.95 10.3733867,3.95 C10.3733867,3.95 10.3827733,3.96082667 10.39728,3.98074667 C10.41176,4.00058667 10.4318933,4.02938667 10.4533333,4.06517333" id="path123256" fill="#2E3192"></path>
                        <path d="M10.7103467,4.06517333 C10.7389333,4.11085333 10.76984,4.16829333 10.7997067,4.23066667 C10.8000533,4.23144 10.8004267,4.23221333 10.8008,4.23304 C10.8169067,4.26682667 10.8326933,4.30189333 10.8475467,4.33754667 C10.89048,4.43986667 10.92216,4.54530667 10.94064,4.62714667 C10.9503733,4.66776 10.9562667,4.70250667 10.95984,4.72701333 C10.9634933,4.75152 10.96448,4.76594667 10.96448,4.76594667 C10.96448,4.76594667 10.9552533,4.75482667 10.9409867,4.73456 C10.9266933,4.71429333 10.9070133,4.68509333 10.88608,4.64890667 C10.8423467,4.57754667 10.7950933,4.4772 10.7523467,4.37634667 C10.72952,4.32141333 10.7089333,4.26562667 10.69176,4.21293333 C10.6914933,4.21221333 10.6912533,4.21146667 10.6910133,4.21072 C10.6769067,4.16725333 10.6649867,4.12584 10.6564267,4.08917333 C10.64608,4.04866667 10.6397067,4.01384 10.6356533,3.98922667 C10.6316533,3.96464 10.6304,3.95 10.6304,3.95 C10.6304,3.95 10.6397867,3.96082667 10.6542667,3.98074667 C10.6687733,4.00058667 10.6888533,4.02938667 10.7103467,4.06517333" id="path123258" fill="#2E3192"></path>
                        <path d="M10.96736,4.06517333 C11.0036533,4.1232 11.04368,4.20010667 11.0804533,4.28210667 C11.0808267,4.28293333 11.0811733,4.28373333 11.0815733,4.28458667 C11.08936,4.30208 11.09712,4.31973333 11.1045333,4.33754667 C11.14752,4.43986667 11.1792,4.54530667 11.1976533,4.62714667 C11.2074133,4.66776 11.21328,4.70250667 11.21688,4.72701333 C11.2205333,4.75152 11.22152,4.76594667 11.22152,4.76594667 C11.22152,4.76594667 11.2122667,4.75482667 11.198,4.73456 C11.1837333,4.71429333 11.1640533,4.68509333 11.14312,4.64890667 C11.09936,4.57754667 11.05208,4.4772 11.0093867,4.37634667 C10.99368,4.33869333 10.9790667,4.30056 10.9658667,4.26336 C10.9655733,4.26256 10.96528,4.26176 10.96504,4.26101333 C10.94312,4.19912 10.9253067,4.13976 10.9133867,4.08917333 C10.9030667,4.04866667 10.8966933,4.01384 10.8926667,3.98922667 C10.88864,3.96464 10.8873867,3.95 10.8873867,3.95 C10.8873867,3.95 10.8967733,3.96082667 10.9112533,3.98074667 C10.9257867,4.00058667 10.9458667,4.02938667 10.96736,4.06517333" id="path123260" fill="#2E3192"></path>
                        <path d="M13.6052,4.76594667 C13.6052,4.80029333 13.5649333,4.82808 13.5152533,4.82808 C13.4655467,4.82808 13.42528,4.80029333 13.42528,4.76594667 C13.42528,4.73168 13.4655467,4.70386667 13.5152533,4.70386667 C13.5649333,4.70386667 13.6052,4.73168 13.6052,4.76594667" id="path123262" fill="#2E3192"></path>
                    </g>
                </g>
            </g>
        </g>
    </g>
</svg>